<?xml version="1.0" standalone="no"?>
<!DOCTYPE svg PUBLIC "-//W3C//DTD SVG 1.1//EN" "http://www.w3.org/Graphics/SVG/1.1/DTD/svg11.dtd" >
<svg xmlns="http://www.w3.org/2000/svg" xmlns:xlink="http://www.w3.org/1999/xlink" version="1.1">
<metadata>
Created by FontForge 20170731 at Sun Jun 10 14:58:07 2018
 By Aleksey,,,
Copyright (c) 2018 by Lucas Descroix. All rights reserved.
</metadata>
<defs>
<font id="Syne-Extra" horiz-adv-x="1055" >
  <font-face 
    font-family="Syne Extra"
    font-weight="900"
    font-stretch="ultra-expanded"
    units-per-em="1000"
    panose-1="0 0 10 7 0 0 0 0 0 0"
    ascent="800"
    descent="-200"
    x-height="490"
    cap-height="640"
    bbox="-578 -253 2187 944"
    underline-thickness="150"
    underline-position="-330"
    unicode-range="U+0020-FB01"
  />
<missing-glyph horiz-adv-x="478" 
d="M388 411v-298h-298v298h298z" />
    <glyph glyph-name="periodcentered" unicode="&#x2d;&#x2d;" horiz-adv-x="354" 
d="M304 197h-254v151h254v-151z" />
    <glyph glyph-name="fi" unicode="fi" horiz-adv-x="1059" 
d="M460.5 526q-20.5 -5 -29 -20t-8.5 -46h581v-460h-240v310h-110v0h-231v-310h-240v310h-163v150h163v50q0 93 54.5 136.5t185.5 43.5h581v-160h-481q-42 1 -62.5 -4z" />
    <glyph glyph-name="f_f" unicode="ff" horiz-adv-x="1233" 
d="M1213 310h-231v-310h-240v310h-319v-310h-240v310h-163v150h163v50q0 93 54.5 136.5t185.5 43.5h231v-160h-131q-42 1 -62.5 -4t-29 -20t-8.5 -46h319v50q0 93 54.5 136.5t185.5 43.5h231v-160h-131q-42 1 -62.5 -4t-29 -20t-8.5 -46h231v-150z" />
    <glyph glyph-name="f_f_i" unicode="ffi" horiz-adv-x="1590" 
d="M1019.5 526q-20.5 -5 -29 -20t-8.5 -46h550v-460h-240v310h-79v0h-231v-310h-240v310h-319v-310h-240v310h-163v150h163v50q0 93 54.5 136.5t185.5 43.5h231v-160h-131q-42 1 -62.5 -4t-29 -20t-8.5 -46h319v50q0 93 54.5 136.5t185.5 43.5h553v-160h-453q-42 1 -62.5 -4
z" />
    <glyph glyph-name=".notdef" horiz-adv-x="478" 
d="M388 411v-298h-298v298h298z" />
    <glyph glyph-name=".null" horiz-adv-x="0" 
 />
    <glyph glyph-name="nonmarkingreturn" horiz-adv-x="333" 
 />
    <glyph glyph-name="space" unicode=" " horiz-adv-x="310" 
 />
    <glyph glyph-name="exclam" unicode="!" horiz-adv-x="354" 
d="M302 650v-446h-250v446h250zM304 0h-254v151h254v-151z" />
    <glyph glyph-name="quotedbl" unicode="&#x22;" horiz-adv-x="606" 
d="M342 432q20 8 35.5 24.5t18.5 39.5l-68 11v153h253v-93q0 -86 -54.5 -135t-170.5 -62zM39 432q20 8 35.5 24.5t18.5 39.5l-68 11v153h253v-93q0 -86 -54.5 -135t-170.5 -62z" />
    <glyph glyph-name="numbersign" unicode="#" horiz-adv-x="1392" 
d="M1092 379v-118h240v-150h-240v-111h-250v111h-292v-111h-250v111h-240v150h240v118h-240v150h240v111h250v-111h292v111h250v-111h240v-150h-240zM842 379h-292v-118h292v118z" />
    <glyph glyph-name="dollar" unicode="$" horiz-adv-x="852" 
d="M665 332q63 -7 105 -35t42 -87q0 -83 -99 -121.5t-280 -38.5q-11 0 -17 1l-21 -121l-64 11l19 112q-115 8 -183 36.5t-95 65.5t-27 74v12h221q14 -24 51 -32t116 -8q78 0 103.5 9t25.5 28q0 24 -47.5 33.5t-164.5 9.5q-106 0 -172 10t-102 37t-36 77q0 165 393 165h10
l23 129l64 -10l-22 -121q143 -12 215 -62.5t71 -125.5h-215q-11 24 -41 32t-105 8q-79 0 -111 -8.5t-32 -30.5q0 -16 16.5 -25t61.5 -13t134 -4q100 0 163 -7z" />
    <glyph glyph-name="percent" unicode="%" horiz-adv-x="1307" 
d="M867 656l-382 -690l-52 32l380 688zM113 366.5q-73 41.5 -73 131.5t73 132t214 42q139 0 211.5 -42t72.5 -132t-72 -131.5t-212 -41.5q-141 0 -214 41.5zM416.5 443.5q30.5 18.5 30.5 54.5t-30.5 55t-89.5 19q-60 0 -92 -19t-32 -55t31.5 -54.5t92.5 -18.5
q59 0 89.5 18.5zM769 24.5q-73 41.5 -73 131.5t73 132t214 42q140 0 212 -42t72 -132t-72 -131.5t-212 -41.5q-141 0 -214 41.5zM1073 101.5q31 18.5 31 54.5q0 35 -31 54.5t-90 19.5t-91 -19t-32 -55t31 -54.5t92 -18.5q59 0 90 18.5z" />
    <glyph glyph-name="ampersand" unicode="&#x26;" horiz-adv-x="1220" 
d="M1200 283h-191v-429h-240v257q-60 -57 -148.5 -94t-206.5 -37q-170 0 -274.5 51t-104.5 147q0 57 39 88.5t108.5 44t176.5 14.5q-148 10 -226 45.5t-78 113.5q0 88 121.5 132t352.5 44q138 0 245.5 -27.5t170 -85.5t62.5 -144h-239q-4 33 -67 50t-172 17
q-114 0 -164 -12.5t-50 -44.5q0 -23 24 -36t80 -18.5t156 -5.5h625v-70zM769 283h-194q-100 0 -157 -4t-87.5 -15.5t-30.5 -35.5q0 -26 21.5 -38.5t63 -16t119.5 -3.5q166 0 265 31v82z" />
    <glyph glyph-name="quotesingle" unicode="'" horiz-adv-x="300" 
d="M90 436l-65 117v107h250v-107l-65 -117h-120z" />
    <glyph glyph-name="parenleft" unicode="(" horiz-adv-x="405" 
d="M269 -173q-87 74 -148 194t-61 265t61 262t148 187l76 -76q-56 -57 -95.5 -153.5t-39.5 -219.5q0 -133 39.5 -231.5t95.5 -151.5z" />
    <glyph glyph-name="parenright" unicode=")" horiz-adv-x="405" 
d="M155.5 54.5q39.5 98.5 39.5 231.5q0 123 -39.5 219.5t-95.5 153.5l76 76q87 -70 148 -187t61 -262t-61 -265t-148 -194l-76 76q56 53 95.5 151.5z" />
    <glyph glyph-name="asterisk" unicode="*" horiz-adv-x="666" 
d="M450 446l123 -150l-135 -98l-110 172l-109 -171l-134 97l126 153l-191 50l51 158l185 -72l-13 196h167l-14 -205l199 79l51 -159z" />
    <glyph glyph-name="plus" unicode="+" horiz-adv-x="780" 
d="M730 195h-245v-135h-190v135h-245v150h245v135h190v-135h245v-150z" />
    <glyph glyph-name="comma" unicode="," horiz-adv-x="303" 
d="M39 -75q20 8 35.5 24.5t18.5 39.5l-68 11v153h253v-93q0 -86 -54.5 -135t-170.5 -62z" />
    <glyph glyph-name="hyphen" unicode="-" horiz-adv-x="590" 
d="M510 347v-150h-430v150h430z" />
    <glyph glyph-name="period" unicode="." horiz-adv-x="354" 
d="M304 0h-254v151h254v-151z" />
    <glyph glyph-name="slash" unicode="/" horiz-adv-x="622" 
d="M572 756l-343 -942l-179 65l343 942z" />
    <glyph glyph-name="zero" unicode="0" horiz-adv-x="1066" 
d="M176 46q-116 61 -116 198t116.5 199t358.5 62q240 0 355.5 -62t115.5 -199t-115 -198t-356 -61q-243 0 -359 61zM703.5 162.5q57.5 27.5 57.5 81.5t-57.5 82.5t-168.5 28.5q-112 0 -171 -28.5t-59 -82.5t58.5 -81.5t171.5 -27.5q111 0 168.5 27.5z" />
    <glyph glyph-name="one" unicode="1" horiz-adv-x="529" 
d="M459 490v-490h-240v300h-194v190h434z" />
    <glyph glyph-name="two" unicode="2" horiz-adv-x="1008" 
d="M400 136l567 19v-155h-890v125v0v0v0h1q258 46 380 70t189.5 48t67.5 51q0 15 -17.5 24t-62 13.5t-126.5 4.5q-107 0 -161 -17t-58 -51h-250q0 113 116.5 175t341.5 62q218 0 344 -38t126 -134q0 -58 -56 -92t-146 -52t-258 -39z" />
    <glyph glyph-name="three" unicode="3" 
d="M872.5 159.5q69.5 -12.5 108.5 -44t39 -88.5q0 -98 -131.5 -148t-367.5 -50q-235 0 -360.5 63.5t-125.5 184.5h251q4 -58 235 -58q88 0 136.5 4t73 16.5t24.5 37.5q0 24 -30 36t-87 16t-158 4h-149v70h149q100 0 156 5.5t80 18.5t24 36q0 31 -50.5 44t-163.5 13
q-108 0 -171.5 -17.5t-67.5 -50.5h-249q0 86 64.5 144t175 86t248.5 28q230 0 352 -44.5t122 -132.5q0 -77 -78 -112.5t-226 -45.5q107 -3 176.5 -15.5z" />
    <glyph glyph-name="four" unicode="4" horiz-adv-x="1094" 
d="M1064 -35h-164v-110h-240v110h-610v150l610 380h240v-380h164v-150zM660 115v167l-261 -167h261z" />
    <glyph glyph-name="five" unicode="5" horiz-adv-x="1015" 
d="M877.5 194q87.5 -42 87.5 -143q0 -112 -109.5 -166.5t-329.5 -54.5q-128 0 -235.5 26.5t-171.5 75.5t-64 115h220q4 -21 73.5 -34t160.5 -13q104 0 160 9.5t56 44.5q0 36 -57 46t-159 10q-64 0 -135 -7t-102 -14l-198 35l50 376h759v-190h-543l-20 -147q56 31 145.5 52
t184.5 21q140 0 227.5 -42z" />
    <glyph glyph-name="six" unicode="6" horiz-adv-x="1133" 
d="M914 411.5q91 -28.5 137.5 -79.5t46.5 -118q0 -69 -52.5 -121.5t-161.5 -82.5t-274 -30q-580 0 -580 222q0 67 62 123q24 23 384 315h338l-342 -236q96 36 220 36q131 0 222 -28.5zM782.5 167.5q65.5 16.5 65.5 51.5q0 33 -67.5 52t-192.5 19q-142 0 -225 -19t-83 -52
q0 -68 308 -68q129 0 194.5 16.5z" />
    <glyph glyph-name="seven" unicode="7" horiz-adv-x="1153" 
d="M1073 490v-190l-505 -450h-327l512 450h-693v190h1013z" />
    <glyph glyph-name="eight" unicode="8" horiz-adv-x="1081" 
d="M902 321q74 -17 109 -51.5t35 -91.5q0 -91 -121.5 -144.5t-384.5 -53.5t-384 53.5t-121 144.5q0 57 35 91.5t109 51.5t199 22q-115 6 -183 21.5t-99.5 44.5t-31.5 75q0 86 112 131t364 45q253 0 365 -45t112 -131q0 -46 -31.5 -75t-99.5 -44.5t-183 -21.5q125 -5 199 -22
zM365 392.5q46 -13.5 175 -13.5q131 0 181.5 14t50.5 39q0 16 -19.5 26t-70 15t-142.5 5q-91 0 -139 -5t-65 -15t-17 -26q0 -26 46 -39.5zM699.5 174.5q56.5 5.5 79 16.5t22.5 29t-22.5 28.5t-79 16t-159.5 5.5q-102 0 -156 -5.5t-74 -16t-20 -28.5q0 -19 20 -29.5t74 -16
t156 -5.5q103 0 159.5 5.5z" />
    <glyph glyph-name="nine" unicode="9" horiz-adv-x="1158" 
d="M987 463q136 -52 136 -165q0 -33 -18 -67t-59 -71q-19 -18 -370 -310h-337l367 259q-118 -49 -265 -49q-131 0 -222.5 28.5t-137.5 79.5t-46 118q0 111 126.5 170t402.5 59q287 0 423 -52zM353.5 227q68.5 -17 210.5 -17q146 0 227.5 17.5t81.5 53.5q0 38 -78.5 53.5
t-230.5 15.5q-147 0 -213 -15t-66 -54q0 -37 68.5 -54z" />
    <glyph glyph-name="colon" unicode=":" horiz-adv-x="354" 
d="M304 0h-254v151h254v-151zM304 362h-254v151h254v-151z" />
    <glyph glyph-name="semicolon" unicode=";" horiz-adv-x="356" 
d="M304 328h-254v151h254v-151zM67 -35q20 8 35.5 24.5t18.5 39.5l-68 11v153h253v-93q0 -86 -54.5 -135t-170.5 -62z" />
    <glyph glyph-name="less" unicode="&#x3c;" horiz-adv-x="532" 
d="M201 289l251 -115l-70 -149l-342 186v151l342 186l70 -138z" />
    <glyph glyph-name="equal" unicode="=" horiz-adv-x="840" 
d="M790 480v-150h-740v150h740zM790 225v-150h-740v150h740z" />
    <glyph glyph-name="greater" unicode="&#x3e;" horiz-adv-x="552" 
d="M492 362v-151l-342 -186l-70 149l251 115l-251 121l70 138z" />
    <glyph glyph-name="question" unicode="?" horiz-adv-x="844" 
d="M720 594q89 -66 89 -178q0 -106 -82.5 -160.5t-215.5 -54.5h-230v150h136q77 0 109.5 12.5t32.5 42.5t-32 42t-110 12t-108 -13t-38 -33h-235q-1 4 -1 13q0 47 35.5 100.5t121 93t225.5 39.5q214 0 303 -66zM279 151h254v-151h-254v151z" />
    <glyph glyph-name="at" unicode="@" horiz-adv-x="1240" 
d="M1150 505q0 -36 -12.5 -72.5t-37.5 -91.5l-14 -31q-6 -13 -32.5 -53.5t-55.5 -76.5t-46 -45q-9 -5 -23.5 -11t-21.5 -11q-3 -3 -6.5 -7t-11.5 -6q-2 -1 -5 -1q-5 0 -12.5 3.5t-13.5 4.5q-71 18 -71 63q0 22 1 48t2 39q0 13 1.5 38.5t1.5 47.5q0 1 3 6t12 28q17 35 9 30
q-35 -23 -57 -41v-62q-16 0 -57 11l-25 -25t-52.5 -49.5t-53.5 -43.5q-41 -29 -137 -81q-76 -40 -110 -62l-2 -1q-5 0 -5 27q0 69 14 116q11 34 26 67.5t39 80.5q3 7 7 15t9 19q18 37 28 62v3q0 4 -1 8.5t-1 9.5q0 7 7 7q3 0 9.5 -2t11.5 -3l24 -2q8 -1 25 -2.5t25 -3.5
q12 -3 88 -25l54 -17q28 25 55 42q46 29 95 29q39 0 63.5 -20.5t24.5 -56.5q0 -22 -10 -49l-14 -15q0 -34 -8 -90l-6 -49l111 126q28 64 39.5 97.5t11.5 67.5q0 17 -3.5 27t-15.5 28q-6 10 -8 14t-5.5 5t-15.5 5q-18 5 -125 20q-1 0 -10 0.5t-23 0.5q-41 0 -92 -5
q-105 -8 -183 -25q-79 -16 -166.5 -53.5t-108.5 -64.5q-53 -74 -80 -125.5t-37 -100.5t-10 -118q0 -34 12 -57t29 -36.5t45 -28.5q5 -3 19 -11t23 -16q-3 3 -0.5 5.5t11.5 2.5q23 0 70 -17q11 -4 51 -4q10 0 26.5 -0.5t48 18t47.5 27.5q71 39 83 51l47 43l74 -48
q8 -5 3 -5.5t-6 -0.5l-47 -43q-22 -20 -36 -31t-39 -25l-40 -25q-51 -32 -86 -46.5t-85 -14.5q-42 0 -92 11t-80 20t-48 24q-62 49 -102 100.5t-40 96.5q0 108 33 197.5t108 197.5q20 28 78 63.5t129 65.5t126 42q109 23 207 31q82 5 108 5q37 0 61 -4q53 -7 87 -14t69 -19
q22 -7 34.5 -20.5t21.5 -27.5t13 -20q25 -39 25 -85zM543 420l1 2zM541 284q32 29 64 59q-71 21 -84 24l-6 -11q-3 -5 -6 -10.5t-8 -12.5q-66 -114 -85 -151l-1 -2l72 60q22 15 54 44z" />
    <glyph glyph-name="A" unicode="A" horiz-adv-x="1160" 
d="M812 97h-464l-63 -97h-275l429 640h278l433 -640h-275zM715 247l-136 210l-135 -210h271z" />
    <glyph glyph-name="B" unicode="B" horiz-adv-x="1140" 
d="M1047 291.5q63 -28.5 63 -100.5q0 -97 -94.5 -144t-265.5 -47h-680v640h630q196 0 287 -37.5t91 -122.5q0 -74 -53.5 -109.5t-162.5 -46.5q122 -4 185 -32.5zM320 454v-97h393q51 0 73 12t22 37t-22 36.5t-73 11.5h-393zM850 237q0 24 -22 36t-73 12h-435v-97h435
q95 0 95 49z" />
    <glyph glyph-name="C" unicode="C" horiz-adv-x="1316" 
d="M1106.5 51.5q-140.5 -71.5 -423.5 -71.5q-205 0 -340.5 30t-209 103.5t-73.5 201.5t73.5 204t210 108.5t339.5 32.5q280 0 422.5 -76.5t150.5 -222.5h-260q-22 43 -93 68.5t-220 25.5q-191 0 -276.5 -33.5t-85.5 -106.5q0 -74 85.5 -107t276.5 -33q149 0 219.5 25
t92.5 67h260q-8 -144 -148.5 -215.5z" />
    <glyph glyph-name="D" unicode="D" horiz-adv-x="1302" 
d="M1242 320q0 -90 -44 -161.5t-145 -115t-263 -43.5h-720v640h720q452 0 452 -320zM936 229q46 29 46 91t-46 91t-156 29h-460v-240h460q110 0 156 29z" />
    <glyph glyph-name="E" unicode="E" horiz-adv-x="1140" 
d="M1080 190v-190h-1010v640h1008v-190h-758v-80h620v-100h-620v-80h760z" />
    <glyph glyph-name="F" unicode="F" horiz-adv-x="1128" 
d="M320 450v-85h620v-170h-620v-195h-250v640h1008v-190h-758z" />
    <glyph glyph-name="G" unicode="G" horiz-adv-x="1350" 
d="M1074 0q0 62 37 173q-51 -89 -169 -141t-289 -52q-285 0 -439 74.5t-154 260.5q0 188 160.5 266.5t462.5 78.5q273 0 419 -75.5t154 -213.5h-260q-54 84 -313 84q-191 0 -276.5 -33.5t-85.5 -106.5q0 -50 38.5 -80.5t122 -45t221.5 -14.5q185 0 326 43l-182 -2v105h423
l10 -321h-206z" />
    <glyph glyph-name="H" unicode="H" horiz-adv-x="1280" 
d="M1210 640v-640h-250v229h-640v-229h-250v640h250v-221h640v221h250z" />
    <glyph glyph-name="I" unicode="I" horiz-adv-x="420" 
d="M335 640v-640h-250v640h250z" />
    <glyph glyph-name="J" unicode="J" horiz-adv-x="1004" 
d="M934 640v-341q0 -80 -48 -150.5t-149.5 -114.5t-252.5 -44q-121 0 -222.5 29.5t-165.5 97.5t-65 177h240q14 -62 64 -89t149 -27q116 0 158 39t42 112v311h250z" />
    <glyph glyph-name="K" unicode="K" horiz-adv-x="1215" 
d="M798 0l-478 338v-338h-250v640h250v-298l410 298h396l-460 -298l514 -342h-382z" />
    <glyph glyph-name="L" unicode="L" horiz-adv-x="943" 
d="M903 190v-190h-734v0h-99v640h250v-450h583z" />
    <glyph glyph-name="M" unicode="M" horiz-adv-x="1580" 
d="M1510 640v-640h-250v328l-320 -328h-300l-320 327v-327h-250v640h250l469 -486l471 486h250z" />
    <glyph glyph-name="N" unicode="N" horiz-adv-x="1300" 
d="M1230 640v-640h-250l-660 382v-382h-250v640h250l660 -389v389h250z" />
    <glyph glyph-name="O" unicode="O" horiz-adv-x="1330" 
d="M315.5 18q-133.5 38 -194.5 113t-61 189t61 189t194.5 113t349.5 38t349.5 -38t194.5 -113t61 -189t-61 -189t-194.5 -113t-349.5 -38t-349.5 38zM915.5 211q84.5 31 84.5 109q0 75 -84.5 105t-250.5 30q-167 0 -256 -30.5t-89 -104.5q0 -78 88.5 -109t256.5 -31
q166 0 250.5 31z" />
    <glyph glyph-name="P" unicode="P" horiz-adv-x="1177" 
d="M1027 586q95 -54 95 -196q0 -97 -46 -146t-121 -64t-193 -15h-444v-165h-250v640h694q170 0 265 -54zM853.5 350.5q18.5 10.5 18.5 39.5t-18.5 39.5t-52.5 10.5h-483v-100h483q34 0 52.5 10.5z" />
    <glyph glyph-name="Q" unicode="Q" horiz-adv-x="1330" 
d="M1155 81.5q-115 -83.5 -370 -98.5v-183h-240v183q-255 15 -370 98.5t-115 238.5q0 114 61 189t194.5 113t349.5 38t349.5 -38t194.5 -113t61 -189q0 -155 -115 -238.5zM915.5 211q84.5 31 84.5 109q0 75 -84.5 105t-250.5 30q-167 0 -256 -30.5t-89 -104.5
q0 -78 88.5 -109t256.5 -31q166 0 250.5 31z" />
    <glyph glyph-name="R" unicode="R" horiz-adv-x="1232" 
d="M1110.5 209q30.5 -23 30.5 -72v-137h-250v107q0 31 -17 46t-58.5 21t-124.5 6h-371v-180h-250v640h773q148 0 234.5 -51.5t86.5 -168.5q0 -83 -43 -124.5t-120 -55.5q79 -8 109.5 -31zM843 347q33 0 52 10.5t19 37.5q0 45 -71 45h-523v-93h523z" />
    <glyph glyph-name="S" unicode="S" horiz-adv-x="1061" 
d="M313 235q10 -29 80.5 -45.5t185.5 -16.5q76 0 118.5 4.5t61 15t18.5 29.5t-29.5 29.5t-101 14.5t-209.5 4q-204 0 -295.5 39.5t-91.5 127.5q0 113 118 168.5t361 55.5q233 0 355.5 -66.5t122.5 -191.5h-259q-5 32 -64.5 49t-164.5 17q-112 0 -163.5 -12t-51.5 -39
q0 -20 26.5 -30t94 -14t204.5 -4q145 0 230 -16t123.5 -51t38.5 -95q0 -82 -48.5 -131.5t-151.5 -73t-272 -23.5q-157 0 -272 30.5t-176 88t-61 136.5h273z" />
    <glyph glyph-name="T" unicode="T" horiz-adv-x="1100" 
d="M1070 445h-395v-445h-250v445h-395v195h1040v-195z" />
    <glyph glyph-name="U" unicode="U" horiz-adv-x="1289" 
d="M1219 640v-320q0 -194 -158.5 -267t-415.5 -73q-171 0 -296.5 27.5t-202 103t-76.5 209.5v320h250v-275q0 -76 37.5 -116t106 -53.5t181.5 -13.5q110 0 179 13.5t107 53.5t38 116v275h250z" />
    <glyph glyph-name="V" unicode="V" horiz-adv-x="1160" 
d="M1140 640l-384 -640h-348l-388 640h282l280 -520l280 520h278z" />
    <glyph glyph-name="W" unicode="W" horiz-adv-x="1882" 
d="M1862 640l-354 -640h-338l-227 443l-227 -443h-338l-358 640h282l253 -499l237 499h302l237 -499l253 499h278z" />
    <glyph glyph-name="X" unicode="X" horiz-adv-x="1140" 
d="M790 0l-221 191l-219 -191h-320l385 323l-375 317h320l210 -185l210 185h320l-376 -317l386 -323h-320z" />
    <glyph glyph-name="Y" unicode="Y" horiz-adv-x="1070" 
d="M1065 640l-405 -477v-163h-250v163l-405 477h295l236 -297l234 297h295z" />
    <glyph glyph-name="Z" unicode="Z" horiz-adv-x="1220" 
d="M1140 450l-628 -260h628v-190h-1060v190l631 260h-631v190h1060v-190z" />
    <glyph glyph-name="bracketleft" unicode="[" horiz-adv-x="550" 
d="M490 -197h-400v997h400v-150h-250v-697h250v-150z" />
    <glyph glyph-name="backslash" unicode="\" horiz-adv-x="622" 
d="M572 -121l-179 -65l-343 942l179 65z" />
    <glyph glyph-name="bracketright" unicode="]" horiz-adv-x="550" 
d="M310 -47v697h-250v150h400v-997h-400v150h250z" />
    <glyph glyph-name="asciicircum" unicode="^" horiz-adv-x="587" 
d="M274 503h-254v151h254v-151z" />
    <glyph glyph-name="underscore" unicode="_" horiz-adv-x="980" 
d="M930 -50v-150h-880v150h880z" />
    <glyph glyph-name="grave" unicode="`" horiz-adv-x="587" 
d="M452 753v-150h-254v150h254z" />
    <glyph glyph-name="a" unicode="a" horiz-adv-x="1063" 
d="M1018 490v-490h-226q-11 63 -14 154q-36 -78 -133 -123t-237 -45q-108 0 -193 31t-132.5 89.5t-47.5 138.5q0 84 47.5 142.5t131.5 88t194 29.5q140 0 236.5 -45t133.5 -123v153h240zM778 245q0 59 -75.5 83t-204.5 24q-104 0 -159 -27t-55 -80t55.5 -80t158.5 -27
q280 0 280 107z" />
    <glyph glyph-name="b" unicode="b" horiz-adv-x="1098" 
d="M884 475.5q84 -29.5 131.5 -88t47.5 -142.5q0 -80 -47.5 -138.5t-132.5 -89.5t-193 -31q-140 0 -237 45t-133 123q-3 -91 -14 -154h-226v690h240v-353q37 78 133.5 123t236.5 45q110 0 194 -29.5zM758.5 165q55.5 27 55.5 80t-55 80t-159 27q-129 0 -204.5 -24t-75.5 -83
q0 -107 280 -107q103 0 158.5 27z" />
    <glyph glyph-name="c" unicode="c" horiz-adv-x="994" 
d="M853 43.5q-106 -58.5 -333 -58.5q-242 0 -363.5 60.5t-121.5 198.5t122 199.5t363 61.5q226 0 331 -58.5t107 -168.5h-220q-17 31 -74 50.5t-144 19.5q-115 0 -177.5 -24.5t-62.5 -79.5t61.5 -78.5t178.5 -23.5q87 0 144.5 19.5t74.5 51.5h220q0 -111 -106 -169.5z" />
    <glyph glyph-name="d" unicode="d" horiz-adv-x="1098" 
d="M1018 690v-690h-226q-11 63 -14 154q-36 -78 -133 -123t-237 -45q-108 0 -193 31t-132.5 89.5t-47.5 138.5q0 84 47.5 142.5t131.5 88t194 29.5q140 0 236.5 -45t133.5 -123v353h240zM778 245q0 59 -75.5 83t-204.5 24q-104 0 -159 -27t-55 -80t55.5 -80t158.5 -27
q280 0 280 107z" />
    <glyph glyph-name="e" unicode="e" horiz-adv-x="994" 
d="M957 176q-15 -91 -121 -141t-313 -50q-240 0 -364 59.5t-124 199.5q0 139 123 200t365 61q155 0 251 -27t141.5 -88t43.5 -163h-680q8 -43 63 -69.5t171 -26.5q87 0 142 11.5t66 33.5h236zM398 348q-49 -10 -77 -25.5t-35 -31.5h440q-9 28 -61.5 47.5t-151.5 19.5
q-66 0 -115 -10z" />
    <glyph glyph-name="f" unicode="f" horiz-adv-x="674" 
d="M460.5 526q-20.5 -5 -29 -20t-8.5 -46h231v-150h-231v-310h-240v310h-163v150h163v50q0 93 54.5 136.5t185.5 43.5h231v-160h-131q-42 1 -62.5 -4z" />
    <glyph glyph-name="g" unicode="g" horiz-adv-x="969" 
d="M949 506v-127q-10 -1 -30 -1q-73 0 -158 17q99 -52 99 -132q0 -96 -99.5 -145t-311.5 -49q-85 0 -117.5 -9t-32.5 -33q0 -27 48 -27h295q101 0 156.5 -14.5t79.5 -48.5t24 -95v-57h-240v27q0 28 -26.5 34.5t-83.5 6.5h-279q-128 0 -173 32t-45 83q0 56 55 81t175 30
q-128 18 -189 68.5t-61 135.5q0 104 101.5 163t312.5 59zM588 224q44 20 44 55q0 75 -183 75q-96 0 -141 -20t-45 -55t44.5 -55t141.5 -20q95 0 139 20z" />
    <glyph glyph-name="h" unicode="h" horiz-adv-x="1008" 
d="M875.5 452.5q87.5 -52.5 87.5 -170.5v-282h-240v182q0 47 -18.5 77t-64.5 45.5t-127 15.5q-69 0 -125 -15.5t-93 -32.5v-272h-240v690h240v-350q22 35 68 72.5t120 65t172 27.5q133 0 220.5 -52.5z" />
    <glyph glyph-name="i" unicode="i" horiz-adv-x="364" 
d="M309 597h-254v150h254v-150zM302 490v-490h-240v490h240z" />
    <glyph glyph-name="j" unicode="j" horiz-adv-x="364" 
d="M309 597h-254v150h254v-150zM302 490v-690h-240v690h240z" />
    <glyph glyph-name="k" unicode="k" horiz-adv-x="942" 
d="M55 690h240v-690h-240v690zM937 0l-304 -2l-334 281l286 211h318l-306 -214z" />
    <glyph glyph-name="l" unicode="l" horiz-adv-x="360" 
d="M300 690v-690h-240v690h240z" />
    <glyph glyph-name="m" unicode="m" horiz-adv-x="1654" 
d="M1522.5 443.5q86.5 -61.5 86.5 -206.5v-237h-240v207q0 51 -17 81t-56 43.5t-107 13.5q-74 0 -135.5 -19.5t-103.5 -42.5q3 -21 3 -46v-237h-240v207q0 51 -17 81t-56 43.5t-107 13.5q-80 0 -144.5 -22t-103.5 -45v-278h-240v490h240v-151q22 37 67.5 74.5t120 64.5
t172.5 27q107 0 185.5 -38.5t107.5 -127.5q21 33 70 71.5t124.5 66.5t168.5 28q135 0 221.5 -61.5z" />
    <glyph glyph-name="n" unicode="n" horiz-adv-x="998" 
d="M866.5 443.5q86.5 -61.5 86.5 -206.5v-237h-240v207q0 51 -17 81t-56 43.5t-107 13.5q-80 0 -144.5 -22t-103.5 -45v-278h-240v490h240v-151q22 37 67.5 74.5t120 64.5t172.5 27q135 0 221.5 -61.5z" />
    <glyph glyph-name="o" unicode="o" horiz-adv-x="1016" 
d="M151 46q-116 61 -116 198t116.5 199t358.5 62q240 0 355.5 -62t115.5 -199t-115 -198t-356 -61q-243 0 -359 61zM678.5 162.5q57.5 27.5 57.5 81.5t-57.5 82.5t-168.5 28.5q-112 0 -171 -28.5t-59 -82.5t58.5 -81.5t171.5 -27.5q111 0 168.5 27.5z" />
    <glyph glyph-name="p" unicode="p" horiz-adv-x="1063" 
d="M848 473q85 -31 132.5 -89.5t47.5 -138.5q0 -84 -47.5 -142.5t-131.5 -88t-194 -29.5q-140 0 -236.5 45t-133.5 123v-353h-240v690h226l12 -159q35 81 132.5 127t239.5 46q108 0 193 -31zM724 165q55 27 55 80t-55.5 80t-158.5 27q-280 0 -280 -107q0 -59 75.5 -83
t204.5 -24q104 0 159 27z" />
    <glyph glyph-name="q" unicode="q" horiz-adv-x="1098" 
d="M1018 490v-690h-240v353q-37 -78 -133.5 -123t-236.5 -45q-110 0 -194 29.5t-131.5 88t-47.5 142.5q0 80 47.5 138.5t132.5 89.5t193 31q142 0 239.5 -46t132.5 -127l12 159h226zM702.5 162q75.5 24 75.5 83q0 107 -280 107q-103 0 -158.5 -27t-55.5 -80t55 -80t159 -27
q129 0 204.5 24z" />
    <glyph glyph-name="r" unicode="r" horiz-adv-x="563" 
d="M543 305q-94 0 -158.5 -21.5t-99.5 -44.5v-239h-240v490h240v-169q18 43 52.5 85t87.5 70.5t118 28.5v-200z" />
    <glyph glyph-name="s" unicode="s" horiz-adv-x="842" 
d="M261 176q13 -25 50 -32.5t117 -7.5q78 0 103.5 9t25.5 28q0 24 -47 33t-165 9q-105 0 -171.5 10t-102.5 37.5t-36 77.5q0 165 393 165q121 0 202.5 -25t120.5 -68t38 -98h-215q-11 25 -41 33t-105 8q-79 0 -111 -8.5t-32 -30.5q0 -16 16.5 -25t62 -13.5t133.5 -4.5
q100 0 163 -7t105 -35t42 -86q0 -160 -379 -160q-147 0 -233.5 28t-120.5 68.5t-34 82.5v12h221z" />
    <glyph glyph-name="t" unicode="t" horiz-adv-x="628" 
d="M608 340h-174v-340h-240v340h-174v150h174v150h240v-150h174v-150z" />
    <glyph glyph-name="u" unicode="u" horiz-adv-x="998" 
d="M953 490v-490h-240v169q-21 -42 -66.5 -84.5t-116 -71t-157.5 -28.5q-147 0 -237.5 63t-90.5 210v232h240v-207q0 -55 18.5 -84.5t57 -41.5t104.5 -12q84 0 147.5 31.5t100.5 66.5v247h240z" />
    <glyph glyph-name="v" unicode="v" horiz-adv-x="918" 
d="M913 490l-349 -490h-226l-333 490h264l185 -307l194 307h265z" />
    <glyph glyph-name="w" unicode="w" horiz-adv-x="1462" 
d="M1457 490l-319 -490h-226l-184 289l-194 -289h-226l-303 490h264l163 -301l166 301h265l157 -301l172 301h265z" />
    <glyph glyph-name="x" unicode="x" horiz-adv-x="980" 
d="M676 0l-197 144l-175 -144h-294l331 245l-331 245h294l183 -133l169 133h294l-325 -234l345 -256h-294z" />
    <glyph glyph-name="y" unicode="y" horiz-adv-x="930" 
d="M925 490l-487 -690h-245l150 203l-338 487h255l199 -320l211 320h255z" />
    <glyph glyph-name="z" unicode="z" horiz-adv-x="896" 
d="M836 150v-150h-776v150l438 190h-438v150h770v-150l-442 -190h448z" />
    <glyph glyph-name="braceleft" unicode="{" horiz-adv-x="623" 
d="M533 650h-225q0 -15 18 -60q17 -42 26.5 -74.5t9.5 -64.5q0 -54 -54.5 -89.5t-145.5 -50.5q91 -15 145.5 -50.5t54.5 -89.5q0 -32 -9.5 -64t-26.5 -75q-18 -45 -18 -60h225v-150h-403q-3 19 -3 39q0 44 12.5 90t35.5 110q15 42 22.5 67t7.5 43q0 46 -40 68t-135 22v100
q95 0 135 22t40 68q0 18 -7.5 43t-22.5 67q-23 64 -35.5 110t-12.5 90q0 20 3 39h403v-150z" />
    <glyph glyph-name="bar" unicode="|" horiz-adv-x="440" 
d="M340 800v-960h-240v960h240z" />
    <glyph glyph-name="braceright" unicode="}" horiz-adv-x="623" 
d="M458 383q40 -22 135 -22v-100q-95 0 -135 -22t-40 -68q0 -18 7.5 -43t22.5 -67q23 -64 35.5 -110t12.5 -90q0 -20 -3 -39h-403v150h225q0 15 -18 60q-17 43 -26.5 75t-9.5 64q0 54 54.5 89.5t145.5 50.5q-91 15 -145.5 50.5t-54.5 89.5q0 32 9.5 64.5t26.5 74.5
q18 45 18 60h-225v150h403q3 -19 3 -39q0 -44 -12.5 -90t-35.5 -110q-15 -42 -22.5 -67t-7.5 -43q0 -46 40 -68z" />
    <glyph glyph-name="asciitilde" unicode="~" horiz-adv-x="414" 
d="M324 197h-254v151h254v-151z" />
    <glyph glyph-name="exclamdown" unicode="&#xa1;" horiz-adv-x="354" 
d="M50 489v151h254v-151h-254zM52 436h250v-446h-250v446z" />
    <glyph glyph-name="cent" unicode="&#xa2;" horiz-adv-x="994" 
d="M959 213q0 -111 -106 -169.5t-333 -58.5h-24l-15 -86l-59 11l14 77q-200 9 -300.5 70t-100.5 187q0 138 122 199.5t363 61.5h7l17 98l59 -11l-15 -88q367 -17 370 -226h-220q-15 28 -61 46.5t-117 22.5l-36 -205q86 1 142 20.5t73 50.5h220zM327 172.5
q47 -23.5 136 -29.5l36 205q-219 -5 -219 -104q0 -48 47 -71.5z" />
    <glyph glyph-name="sterling" unicode="&#xa3;" horiz-adv-x="1092" 
d="M366.5 207q-59.5 -19 -116.5 -19h754v-188h-905v188q74 1 126 18t52 50q0 15 -10 26h-227v65h137q-51 15 -83 46t-32 81q0 94 123 140t341 46q151 0 270 -28.5t187.5 -86t68.5 -141.5h-264q-5 27 -78 45t-169 18q-122 0 -179.5 -13t-57.5 -53q0 -30 42 -54h375v-65h-294
q-1 -56 -60.5 -75z" />
    <glyph glyph-name="currency" unicode="&#xa4;" horiz-adv-x="926" 
d="M839 157.5q-57 -57.5 -167 -83.5l55 -78l-57 -40l-74 105q-56 -7 -131 -7q-73 0 -129 7l-73 -105l-58 40l55 78q-113 25 -171.5 82.5t-58.5 146.5t59 147t172 84l-56 80l58 40l75 -107q55 7 127 7q74 0 129 -7l76 107l57 -40l-57 -81q111 -26 168.5 -84t57.5 -146
t-57 -145.5zM323 224q48 -30 142 -30q92 0 139 30t47 79t-47 80t-139 31q-93 0 -141.5 -31t-48.5 -80t48 -79z" />
    <glyph glyph-name="yen" unicode="&#xa5;" horiz-adv-x="1070" 
d="M670 175h110v-65h-490v65h110l-395 465h295l236 -297l234 297h295zM290 65h490v-65h-490v65z" />
    <glyph glyph-name="brokenbar" unicode="&#xa6;" horiz-adv-x="440" 
d="M340 395h-240v405h240v-405zM340 -160h-240v405h240v-405z" />
    <glyph glyph-name="section" unicode="&#xa7;" horiz-adv-x="874" 
d="M770.5 190q48.5 -34 48.5 -85q0 -69 -87 -105t-252 -36q-114 0 -203.5 23t-140 63.5t-50.5 91.5q0 9 1 13h204q20 -41 177 -41q75 0 103 9.5t28 35.5q0 18 -13.5 26.5t-49 13t-108.5 6.5q-142 5 -226.5 20t-123 44t-38.5 75q0 99 214 99q-104 24 -146.5 52t-42.5 70
q0 68 92 106.5t255 38.5q175 0 273.5 -49.5t101.5 -138.5h-220q-5 20 -42.5 29t-118.5 9q-61 0 -91 -9.5t-30 -33.5q0 -20 16 -31.5t53.5 -17.5t107.5 -10q190 -8 281 -39.5t91 -88.5q0 -44 -50 -65.5t-156 -24.5q94 -16 142.5 -50zM337 290.5q47 -15.5 149 -14.5
q53 4 75.5 17.5t22.5 42.5q0 36 -40 49.5t-140 12.5q-60 -5 -87 -18t-27 -39q0 -35 47 -50.5z" />
    <glyph glyph-name="dieresis" unicode="&#xa8;" horiz-adv-x="558" 
d="M271 602h-254v151h254v-151zM575 602h-254v151h254v-151z" />
    <glyph glyph-name="copyright" unicode="&#xa9;" horiz-adv-x="1628" 
d="M412.5 31q-170.5 41 -261.5 118t-91 183q0 105 90 177.5t259.5 109.5t406.5 37q236 0 404.5 -37t258 -109.5t89.5 -177.5q0 -106 -90.5 -183t-260 -118t-401.5 -41q-233 0 -403.5 41zM1134 117q141 27 222.5 81.5t81.5 133.5q0 116 -170 170t-452 54q-284 0 -455 -54
t-171 -170q0 -79 82 -133.5t223.5 -81.5t320.5 -27q177 0 318 27zM1148 196.5q-96 -36.5 -317 -36.5q-156 0 -255 16t-147.5 51.5t-48.5 94.5q0 87 109 125.5t342 38.5q220 0 315.5 -36.5t96.5 -106.5h-172q-14 21 -70 32t-170 11q-144 0 -206 -14.5t-62 -49.5t61 -48.5
t207 -13.5q210 0 241 43h172q0 -70 -96 -106.5z" />
    <glyph glyph-name="ordfeminine" unicode="&#xaa;" horiz-adv-x="1003" 
d="M958 690v-400h-226q-10 58 -13 135q-37 -65 -131 -107t-220 -42q-97 0 -173 26.5t-118 75t-42 112.5q0 68 42 116.5t117 73.5t174 25q125 0 218.5 -40.5t131.5 -102.5v128h240zM638 440.5q80 15.5 80 49.5q0 35 -79.5 50t-200.5 15q-76 0 -115 -15.5t-39 -49.5
q0 -65 154 -65q120 0 200 15.5z" />
    <glyph glyph-name="guillemotleft" unicode="&#xab;" horiz-adv-x="774" 
d="M261 279l150 -161l-111 -99l-240 260l240 261l109 -101zM694 144l-110 -99l-220 239l220 239l108 -100l-127 -139z" />
    <glyph glyph-name="logicalnot" unicode="&#xac;" horiz-adv-x="1005" 
d="M905 160h-190v130h-630v150h820v-280z" />
    <glyph glyph-name="uni00AD" unicode="&#xad;" horiz-adv-x="600" 
d="M510 347v-150h-430v150h430z" />
    <glyph glyph-name="registered" unicode="&#xae;" horiz-adv-x="1628" 
d="M412.5 80q-170.5 41 -261.5 118t-91 183q0 105 90 177.5t259.5 109.5t406.5 37q236 0 404.5 -37t258 -109.5t89.5 -177.5q0 -106 -90.5 -183t-260 -118t-401.5 -41q-233 0 -403.5 41zM1266.5 198.5q171.5 59.5 171.5 182.5q0 122 -166.5 173t-455.5 51q-291 0 -458.5 -51
t-167.5 -173q0 -123 172.5 -182.5t453.5 -59.5q279 0 450.5 59.5zM525 545h467q91 0 136.5 -27.5t45.5 -91.5q0 -51 -30 -73.5t-105 -22.5q52 -3 78.5 -9.5t35.5 -17t9 -28.5v-64h-134v47q0 17 -10.5 25.5t-39 11.5t-88.5 3h-230v-87h-135v334zM1001 383q18 0 28 6.5
t10 22.5q0 15 -10 21t-28 6h-342v-56h342z" />
    <glyph glyph-name="macron" unicode="&#xaf;" horiz-adv-x="304" 
d="M274 603h-254v151h254v-151z" />
    <glyph glyph-name="degree" unicode="&#xb0;" horiz-adv-x="665" 
d="M116.5 341q-76.5 44 -76.5 132t76.5 132.5t216.5 44.5q139 0 215.5 -44.5t76.5 -132.5t-76 -132t-216 -44t-216.5 44zM466 401.5q42 24.5 42 71.5q0 92 -175 92t-175 -92q0 -47 42 -71.5t133 -24.5t133 24.5z" />
    <glyph glyph-name="plusminus" unicode="&#xb1;" horiz-adv-x="780" 
d="M730 375v-150h-245v-115h-190v115h-245v150h245v115h190v-115h245zM50 55h680v-65h-680v65z" />
    <glyph glyph-name="uni00B2" unicode="&#xb2;" horiz-adv-x="330" 
d="M280 464v-64h-221v63q31 24 82 59q39 25 54 40t15 35q0 19 -12 31t-35 12q-20 0 -33 -12.5t-13 -30.5q0 -5 2 -15h-66q-3 12 -3 24q0 43 33 73.5t80 30.5q52 0 84.5 -31.5t32.5 -81.5q0 -33 -14.5 -55t-42 -39t-80.5 -42z" />
    <glyph glyph-name="uni00B3" unicode="&#xb3;" horiz-adv-x="314" 
d="M264 481q0 -37 -27.5 -63t-79.5 -26q-50 0 -78.5 27t-28.5 66q0 11 1 17h66q-3 -16 7 -29t33 -13q19 0 28.5 9.5t9.5 23.5q0 16 -11 26t-32 10h-35v49h35q39 0 39 31q0 15 -9.5 24t-27.5 9q-19 0 -29 -11.5t-8 -25.5h-62l-1 15q0 39 28 64.5t74 25.5q48 0 76 -25t28 -65
q0 -29 -14 -45t-44 -22q62 -13 62 -72z" />
    <glyph glyph-name="acute" unicode="&#xb4;" horiz-adv-x="304" 
d="M329 603h-254v151h254v-151z" />
    <glyph glyph-name="uni00B5" unicode="&#xb5;" horiz-adv-x="1063" 
d="M974.5 202q21.5 -12 68.5 -12v-190q-173 0 -249 39t-81 119q-25 -70 -86 -121.5t-164 -51.5q-65 0 -109 19.5t-69 60.5v-265h-240v690h240v-187q0 -90 50 -124t140 -34q83 0 143 31t95 66v248h240v-240q0 -36 21.5 -48z" />
    <glyph glyph-name="paragraph" unicode="&#xb6;" horiz-adv-x="1103" 
d="M1033 0h-240v166h-119v-166h-240v166h-61q-170 0 -256.5 55t-86.5 179q0 125 83 182.5t250 57.5h670v-640zM793 440h-433q-36 0 -58 -10.5t-22 -39.5t21.5 -39t58.5 -10h433v99z" />
    <glyph glyph-name="cedilla" unicode="&#xb8;" horiz-adv-x="304" 
d="M274 -200h-254v151h254v-151z" />
    <glyph glyph-name="uni00B9" unicode="&#xb9;" horiz-adv-x="267" 
d="M217 700v-300h-68v232h-99v68h167z" />
    <glyph glyph-name="ordmasculine" unicode="&#xba;" horiz-adv-x="1016" 
d="M184.5 325.5q-109.5 50.5 -109.5 163.5t110 164.5t325 51.5q213 0 322 -51.5t109 -164.5q0 -114 -108 -164t-323 -50q-216 0 -325.5 50.5zM659 435.5q42 18.5 42 53.5t-42 54.5t-149 19.5q-108 0 -151.5 -19.5t-43.5 -54.5t42.5 -53.5t152.5 -18.5q107 0 149 18.5z" />
    <glyph glyph-name="guillemotright" unicode="&#xbb;" horiz-adv-x="774" 
d="M714 279l-241 -260l-110 99l150 161l-148 160l108 101zM409 284l-219 -239l-110 99l129 140l-128 139l109 100z" />
    <glyph glyph-name="onequarter" unicode="&#xbc;" horiz-adv-x="1426" 
d="M629 380v-140h-604v140h224v127h-224v135h434v-262h170zM993 670l-382 -690l-52 32l380 688zM1396 63h-79v-63h-187v63h-327v132l339 206h175v-228h79v-110zM1140 282l-153 -122h153v122z" />
    <glyph glyph-name="onehalf" unicode="&#xbd;" horiz-adv-x="1498" 
d="M629 380v-140h-604v140h224v127h-224v135h434v-262h170zM993 670l-382 -690l-52 32l380 688zM877 129q177 24 265 40.5t118 30t30 31.5t-27 26t-95 8q-64 0 -98 -11.5t-43 -29.5h-174q0 53 33.5 96.5t105 69.5t180.5 26q134 0 210 -31.5t76 -104.5q0 -44 -25 -70
t-73.5 -40.5t-130.5 -24.5l-136 -16l354 10v-139h-570v129z" />
    <glyph glyph-name="threequarters" unicode="&#xbe;" horiz-adv-x="1420" 
d="M565.5 423.5q37.5 -5.5 60 -23t22.5 -54.5q0 -65 -77.5 -95.5t-227.5 -30.5q-152 0 -230 40.5t-78 125.5h143q1 -19 40.5 -26t121.5 -7q65 0 96.5 2t45.5 8t14 20q0 13 -15 19t-46.5 7.5t-94.5 1.5h-136v40h136q87 0 117.5 7t30.5 24q0 15 -30 21t-118 6q-73 0 -116 -8
t-45 -20h-142q0 89 83.5 132t215.5 43q301 0 301 -124q0 -45 -47 -70t-129 -31q67 -2 104.5 -7.5zM987 670l-382 -690l-52 32l380 688zM1390 63h-79v-63h-187v63h-327v132l339 206h175v-228h79v-110zM1134 282l-153 -122h153v122z" />
    <glyph glyph-name="questiondown" unicode="&#xbf;" horiz-adv-x="844" 
d="M565 435h-254v151h254v-151zM809 159q0 -47 -35.5 -100.5t-121.5 -93t-226 -39.5q-213 0 -302 66t-89 178q0 106 82.5 160.5t215.5 54.5h230v-150h-137q-77 0 -109 -12.5t-32 -42.5t32 -42t109 -12q79 0 109 13t38 33h235z" />
    <glyph glyph-name="Agrave" unicode="&#xc0;" horiz-adv-x="1160" 
d="M812 97h-464l-63 -97h-275l429 640h278l433 -640h-275zM715 247l-136 210l-135 -210h271zM705 843v-150h-254v150h254z" />
    <glyph glyph-name="Aacute" unicode="&#xc1;" horiz-adv-x="1160" 
d="M812 97h-464l-63 -97h-275l429 640h278l433 -640h-275zM715 247l-136 210l-135 -210h271zM705 693h-254v151h254v-151z" />
    <glyph glyph-name="Acircumflex" unicode="&#xc2;" horiz-adv-x="1160" 
d="M812 97h-464l-63 -97h-275l429 640h278l433 -640h-275zM715 247l-136 210l-135 -210h271zM705 693h-254v151h254v-151z" />
    <glyph glyph-name="Atilde" unicode="&#xc3;" horiz-adv-x="1160" 
d="M812 97h-464l-63 -97h-275l429 640h278l433 -640h-275zM715 247l-136 210l-135 -210h271zM705 693h-254v151h254v-151z" />
    <glyph glyph-name="Adieresis" unicode="&#xc4;" horiz-adv-x="1160" 
d="M812 97h-464l-63 -97h-275l429 640h278l433 -640h-275zM715 247l-136 210l-135 -210h271zM296 512h-254v151h254v-151zM1143 512h-254v151h254v-151z" />
    <glyph glyph-name="Aring" unicode="&#xc5;" horiz-adv-x="1160" 
d="M812 97h-464l-63 -97h-275l429 640h278l433 -640h-275zM715 247l-136 210l-135 -210h271zM705 693h-254v151h254v-151z" />
    <glyph glyph-name="AE" unicode="&#xc6;" horiz-adv-x="1681" 
d="M1621 190v-190h-1010v140h-235l-94 -140h-272l444 640h1165v-190h-758v-80h620v-100h-620v-80h760zM611 287v203l-136 -203h136z" />
    <glyph glyph-name="Ccedilla" unicode="&#xc7;" horiz-adv-x="1316" 
d="M1106.5 51.5q-140.5 -71.5 -423.5 -71.5q-205 0 -340.5 30t-209 103.5t-73.5 201.5t73.5 204t210 108.5t339.5 32.5q280 0 422.5 -76.5t150.5 -222.5h-260q-22 43 -93 68.5t-220 25.5q-191 0 -276.5 -33.5t-85.5 -106.5q0 -74 85.5 -107t276.5 -33q149 0 219.5 25
t92.5 67h260q-8 -144 -148.5 -215.5zM820 -200h-254v151h254v-151z" />
    <glyph glyph-name="Egrave" unicode="&#xc8;" horiz-adv-x="1140" 
d="M1080 190v-190h-1010v640h1008v-190h-758v-80h620v-100h-620v-80h760zM712 843v-150h-254v150h254z" />
    <glyph glyph-name="Eacute" unicode="&#xc9;" horiz-adv-x="1140" 
d="M1080 190v-190h-1010v640h1008v-190h-758v-80h620v-100h-620v-80h760zM712 693h-254v151h254v-151z" />
    <glyph glyph-name="Ecircumflex" unicode="&#xca;" horiz-adv-x="1140" 
d="M1080 190v-190h-1010v640h1008v-190h-758v-80h620v-100h-620v-80h760zM712 693h-254v151h254v-151z" />
    <glyph glyph-name="Edieresis" unicode="&#xcb;" horiz-adv-x="1140" 
d="M1080 190v-190h-1010v640h1008v-190h-758v-80h620v-100h-620v-80h760zM560 692h-254v151h254v-151zM864 692h-254v151h254v-151z" />
    <glyph glyph-name="Igrave" unicode="&#xcc;" horiz-adv-x="420" 
d="M335 640v-640h-250v640h250zM337 843v-150h-254v150h254z" />
    <glyph glyph-name="Iacute" unicode="&#xcd;" horiz-adv-x="420" 
d="M335 640v-640h-250v640h250zM337 693h-254v151h254v-151z" />
    <glyph glyph-name="Icircumflex" unicode="&#xce;" horiz-adv-x="420" 
d="M335 640v-640h-250v640h250zM337 693h-254v151h254v-151z" />
    <glyph glyph-name="Idieresis" unicode="&#xcf;" horiz-adv-x="420" 
d="M335 640v-640h-250v640h250zM185 692h-254v151h254v-151zM489 692h-254v151h254v-151z" />
    <glyph glyph-name="Eth" unicode="&#xd0;" horiz-adv-x="1302" 
d="M1242 320q0 -90 -44 -161.5t-145 -115t-263 -43.5h-720v298h-86v65h86v277h720q452 0 452 -320zM936 229q46 29 46 91t-46 91t-156 29h-460v-77h154v-65h-154v-98h460q110 0 156 29z" />
    <glyph glyph-name="Ntilde" unicode="&#xd1;" horiz-adv-x="1300" 
d="M1230 640v-640h-250l-660 382v-382h-250v640h250l660 -389v389h250zM781 693h-254v151h254v-151z" />
    <glyph glyph-name="Ograve" unicode="&#xd2;" horiz-adv-x="1330" 
d="M315.5 18q-133.5 38 -194.5 113t-61 189t61 189t194.5 113t349.5 38t349.5 -38t194.5 -113t61 -189t-61 -189t-194.5 -113t-349.5 -38t-349.5 38zM915.5 211q84.5 31 84.5 109q0 75 -84.5 105t-250.5 30q-167 0 -256 -30.5t-89 -104.5q0 -78 88.5 -109t256.5 -31
q166 0 250.5 31zM792 853v-150h-254v150h254z" />
    <glyph glyph-name="Oacute" unicode="&#xd3;" horiz-adv-x="1330" 
d="M315.5 18q-133.5 38 -194.5 113t-61 189t61 189t194.5 113t349.5 38t349.5 -38t194.5 -113t61 -189t-61 -189t-194.5 -113t-349.5 -38t-349.5 38zM915.5 211q84.5 31 84.5 109q0 75 -84.5 105t-250.5 30q-167 0 -256 -30.5t-89 -104.5q0 -78 88.5 -109t256.5 -31
q166 0 250.5 31zM792 703h-254v151h254v-151z" />
    <glyph glyph-name="Ocircumflex" unicode="&#xd4;" horiz-adv-x="1330" 
d="M315.5 18q-133.5 38 -194.5 113t-61 189t61 189t194.5 113t349.5 38t349.5 -38t194.5 -113t61 -189t-61 -189t-194.5 -113t-349.5 -38t-349.5 38zM915.5 211q84.5 31 84.5 109q0 75 -84.5 105t-250.5 30q-167 0 -256 -30.5t-89 -104.5q0 -78 88.5 -109t256.5 -31
q166 0 250.5 31zM792 703h-254v151h254v-151z" />
    <glyph glyph-name="Otilde" unicode="&#xd5;" horiz-adv-x="1330" 
d="M315.5 18q-133.5 38 -194.5 113t-61 189t61 189t194.5 113t349.5 38t349.5 -38t194.5 -113t61 -189t-61 -189t-194.5 -113t-349.5 -38t-349.5 38zM915.5 211q84.5 31 84.5 109q0 75 -84.5 105t-250.5 30q-167 0 -256 -30.5t-89 -104.5q0 -78 88.5 -109t256.5 -31
q166 0 250.5 31zM792 703h-254v151h254v-151z" />
    <glyph glyph-name="Odieresis" unicode="&#xd6;" horiz-adv-x="1330" 
d="M315.5 18q-133.5 38 -194.5 113t-61 189t61 189t194.5 113t349.5 38t349.5 -38t194.5 -113t61 -189t-61 -189t-194.5 -113t-349.5 -38t-349.5 38zM915.5 211q84.5 31 84.5 109q0 75 -84.5 105t-250.5 30q-167 0 -256 -30.5t-89 -104.5q0 -78 88.5 -109t256.5 -31
q166 0 250.5 31zM659 702h-254v151h254v-151zM964 702h-254v151h254v-151z" />
    <glyph glyph-name="multiply" unicode="&#xd7;" horiz-adv-x="711" 
d="M461 250l170 -170l-106 -106l-170 170l-170 -170l-106 106l170 170l-170 170l106 106l170 -170l170 170l106 -106z" />
    <glyph glyph-name="Oslash" unicode="&#xd8;" horiz-adv-x="1330" 
d="M1177 541q93 -81 93 -221q0 -114 -61 -189t-194.5 -113t-349.5 -38q-74 0 -151 5l-40 -73l-52 32l26 48q-203 26 -295.5 107t-92.5 221q0 114 61 189t194.5 113t349.5 38q72 0 149 -5l40 73l54 -30l-27 -50q203 -26 296 -107zM380 224.5q60 -31.5 174 -40.5l150 271h-39
q-167 0 -256 -30.5t-89 -104.5q0 -64 60 -95.5zM915.5 211q84.5 31 84.5 109q0 61 -58 92t-170 40l-150 -272h43q166 0 250.5 31z" />
    <glyph glyph-name="Ugrave" unicode="&#xd9;" horiz-adv-x="1289" 
d="M1219 640v-320q0 -194 -158.5 -267t-415.5 -73q-171 0 -296.5 27.5t-202 103t-76.5 209.5v320h250v-275q0 -76 37.5 -116t106 -53.5t181.5 -13.5q110 0 179 13.5t107 53.5t38 116v275h250zM772 843v-150h-254v150h254z" />
    <glyph glyph-name="Uacute" unicode="&#xda;" horiz-adv-x="1289" 
d="M1219 640v-320q0 -194 -158.5 -267t-415.5 -73q-171 0 -296.5 27.5t-202 103t-76.5 209.5v320h250v-275q0 -76 37.5 -116t106 -53.5t181.5 -13.5q110 0 179 13.5t107 53.5t38 116v275h250zM772 693h-254v151h254v-151z" />
    <glyph glyph-name="Ucircumflex" unicode="&#xdb;" horiz-adv-x="1289" 
d="M1219 640v-320q0 -194 -158.5 -267t-415.5 -73q-171 0 -296.5 27.5t-202 103t-76.5 209.5v320h250v-275q0 -76 37.5 -116t106 -53.5t181.5 -13.5q110 0 179 13.5t107 53.5t38 116v275h250zM772 693h-254v151h254v-151z" />
    <glyph glyph-name="Udieresis" unicode="&#xdc;" horiz-adv-x="1289" 
d="M1219 640v-320q0 -194 -158.5 -267t-415.5 -73q-171 0 -296.5 27.5t-202 103t-76.5 209.5v320h250v-275q0 -76 37.5 -116t106 -53.5t181.5 -13.5q110 0 179 13.5t107 53.5t38 116v275h250zM620 490h-254v151h254v-151zM924 490h-254v151h254v-151z" />
    <glyph glyph-name="Yacute" unicode="&#xdd;" horiz-adv-x="1070" 
d="M1065 640l-405 -477v-163h-250v163l-405 477h295l236 -297l234 297h295zM662 693h-254v151h254v-151z" />
    <glyph glyph-name="Thorn" unicode="&#xde;" horiz-adv-x="1097" 
d="M874 534q76 -16 122 -66.5t46 -147.5t-46 -147.5t-122 -66.5t-192 -16h-364v-90h-250v640h250v-90h364q116 0 192 -16zM773.5 280.5q18.5 10.5 18.5 39.5t-18.5 39.5t-52.5 10.5h-403v-100h403q34 0 52.5 10.5z" />
    <glyph glyph-name="germandbls" unicode="&#xdf;" horiz-adv-x="1138" 
d="M1038.5 154.5q89.5 -38.5 89.5 -128.5q0 -98 -78.5 -147t-207.5 -64t-333 -15v154q178 0 249.5 3.5t98 16t26.5 43.5t-25 43.5t-91 16t-228 3.5h-30v144l204 86h-418v-310h-240v510q0 93 54.5 136.5t185.5 43.5h264v-160h-194q-38 1 -54 -16t-16 -54v0h757v-120
l-258 -139q155 -8 244.5 -46.5z" />
    <glyph glyph-name="agrave" unicode="&#xe0;" horiz-adv-x="1063" 
d="M1018 490v-490h-226q-11 63 -14 154q-36 -78 -133 -123t-237 -45q-108 0 -193 31t-132.5 89.5t-47.5 138.5q0 84 47.5 142.5t131.5 88t194 29.5q140 0 236.5 -45t133.5 -123v153h240zM778 245q0 59 -75.5 83t-204.5 24q-104 0 -159 -27t-55 -80t55.5 -80t158.5 -27
q280 0 280 107zM625 753v-150h-254v150h254z" />
    <glyph glyph-name="aacute" unicode="&#xe1;" horiz-adv-x="1063" 
d="M1018 490v-490h-226q-11 63 -14 154q-36 -78 -133 -123t-237 -45q-108 0 -193 31t-132.5 89.5t-47.5 138.5q0 84 47.5 142.5t131.5 88t194 29.5q140 0 236.5 -45t133.5 -123v153h240zM778 245q0 59 -75.5 83t-204.5 24q-104 0 -159 -27t-55 -80t55.5 -80t158.5 -27
q280 0 280 107zM625 603h-254v151h254v-151z" />
    <glyph glyph-name="acircumflex" unicode="&#xe2;" horiz-adv-x="1063" 
d="M1018 490v-490h-226q-11 63 -14 154q-36 -78 -133 -123t-237 -45q-108 0 -193 31t-132.5 89.5t-47.5 138.5q0 84 47.5 142.5t131.5 88t194 29.5q140 0 236.5 -45t133.5 -123v153h240zM778 245q0 59 -75.5 83t-204.5 24q-104 0 -159 -27t-55 -80t55.5 -80t158.5 -27
q280 0 280 107zM625 603h-254v151h254v-151z" />
    <glyph glyph-name="atilde" unicode="&#xe3;" horiz-adv-x="1063" 
d="M1018 490v-490h-226q-11 63 -14 154q-36 -78 -133 -123t-237 -45q-108 0 -193 31t-132.5 89.5t-47.5 138.5q0 84 47.5 142.5t131.5 88t194 29.5q140 0 236.5 -45t133.5 -123v153h240zM778 245q0 59 -75.5 83t-204.5 24q-104 0 -159 -27t-55 -80t55.5 -80t158.5 -27
q280 0 280 107zM625 603h-254v151h254v-151z" />
    <glyph glyph-name="adieresis" unicode="&#xe4;" horiz-adv-x="1063" 
d="M1018 490v-490h-226q-11 63 -14 154q-36 -78 -133 -123t-237 -45q-108 0 -193 31t-132.5 89.5t-47.5 138.5q0 84 47.5 142.5t131.5 88t194 29.5q140 0 236.5 -45t133.5 -123v153h240zM778 245q0 59 -75.5 83t-204.5 24q-104 0 -159 -27t-55 -80t55.5 -80t158.5 -27
q280 0 280 107zM473 602h-254v151h254v-151zM777 602h-254v151h254v-151z" />
    <glyph glyph-name="aring" unicode="&#xe5;" horiz-adv-x="1063" 
d="M1018 490v-490h-226q-11 63 -14 154q-36 -78 -133 -123t-237 -45q-108 0 -193 31t-132.5 89.5t-47.5 138.5q0 84 47.5 142.5t131.5 88t194 29.5q140 0 236.5 -45t133.5 -123v153h240zM778 245q0 59 -75.5 83t-204.5 24q-104 0 -159 -27t-55 -80t55.5 -80t158.5 -27
q280 0 280 107zM625 603h-254v151h254v-151z" />
    <glyph glyph-name="ae" unicode="&#xe6;" horiz-adv-x="1915" 
d="M1694.5 476q95.5 -27 141 -88t44.5 -163h-681q8 -43 63.5 -69.5t171.5 -26.5q87 0 142 11.5t66 33.5h235q-15 -91 -120.5 -141t-312.5 -50q-156 0 -262.5 24t-163.5 78v-85h-226q-11 63 -14 154q-36 -78 -133 -123t-237 -45q-108 0 -193 31t-132.5 89.5t-47.5 138.5
q0 84 47.5 142.5t131.5 88t194 29.5q140 0 236.5 -45t133.5 -123v153h240v-90q56 53 163 78t263 25q155 0 250.5 -27zM1647 288q-9 28 -61.5 48t-151.5 20q-66 0 -115 -10.5t-77 -26t-35 -31.5h440zM778 245q0 59 -75.5 83t-204.5 24q-104 0 -159 -27t-55 -80t55.5 -80
t158.5 -27q280 0 280 107z" />
    <glyph glyph-name="ccedilla" unicode="&#xe7;" horiz-adv-x="994" 
d="M853 43.5q-106 -58.5 -333 -58.5q-242 0 -363.5 60.5t-121.5 198.5t122 199.5t363 61.5q226 0 331 -58.5t107 -168.5h-220q-17 31 -74 50.5t-144 19.5q-115 0 -177.5 -24.5t-62.5 -79.5t61.5 -78.5t178.5 -23.5q87 0 144.5 19.5t74.5 51.5h220q0 -111 -106 -169.5z
M645 -210h-254v151h254v-151z" />
    <glyph glyph-name="egrave" unicode="&#xe8;" horiz-adv-x="994" 
d="M957 176q-15 -91 -121 -141t-313 -50q-240 0 -364 59.5t-124 199.5q0 139 123 200t365 61q155 0 251 -27t141.5 -88t43.5 -163h-680q8 -43 63 -69.5t171 -26.5q87 0 142 11.5t66 33.5h236zM398 348q-49 -10 -77 -25.5t-35 -31.5h440q-9 28 -61.5 47.5t-151.5 19.5
q-66 0 -115 -10zM640 753v-150h-254v150h254z" />
    <glyph glyph-name="eacute" unicode="&#xe9;" horiz-adv-x="994" 
d="M957 176q-15 -91 -121 -141t-313 -50q-240 0 -364 59.5t-124 199.5q0 139 123 200t365 61q155 0 251 -27t141.5 -88t43.5 -163h-680q8 -43 63 -69.5t171 -26.5q87 0 142 11.5t66 33.5h236zM398 348q-49 -10 -77 -25.5t-35 -31.5h440q-9 28 -61.5 47.5t-151.5 19.5
q-66 0 -115 -10zM640 603h-254v151h254v-151z" />
    <glyph glyph-name="ecircumflex" unicode="&#xea;" horiz-adv-x="994" 
d="M957 176q-15 -91 -121 -141t-313 -50q-240 0 -364 59.5t-124 199.5q0 139 123 200t365 61q155 0 251 -27t141.5 -88t43.5 -163h-680q8 -43 63 -69.5t171 -26.5q87 0 142 11.5t66 33.5h236zM398 348q-49 -10 -77 -25.5t-35 -31.5h440q-9 28 -61.5 47.5t-151.5 19.5
q-66 0 -115 -10zM640 603h-254v151h254v-151z" />
    <glyph glyph-name="edieresis" unicode="&#xeb;" horiz-adv-x="994" 
d="M957 176q-15 -91 -121 -141t-313 -50q-240 0 -364 59.5t-124 199.5q0 139 123 200t365 61q155 0 251 -27t141.5 -88t43.5 -163h-680q8 -43 63 -69.5t171 -26.5q87 0 142 11.5t66 33.5h236zM398 348q-49 -10 -77 -25.5t-35 -31.5h440q-9 28 -61.5 47.5t-151.5 19.5
q-66 0 -115 -10zM488 602h-254v151h254v-151zM792 602h-254v151h254v-151z" />
    <glyph glyph-name="igrave" unicode="&#xec;" horiz-adv-x="350" 
d="M295 490v-490h-240v490h240zM302 748v-150h-254v150h254z" />
    <glyph glyph-name="iacute" unicode="&#xed;" horiz-adv-x="350" 
d="M295 490v-490h-240v490h240zM302 598h-254v151h254v-151z" />
    <glyph glyph-name="icircumflex" unicode="&#xee;" horiz-adv-x="350" 
d="M295 490v-490h-240v490h240zM302 598h-254v151h254v-151z" />
    <glyph glyph-name="idieresis" unicode="&#xef;" horiz-adv-x="350" 
d="M156 602h-191v151h191v-151zM385 602h-191v151h191v-151zM295 490v-490h-240v490h240z" />
    <glyph glyph-name="eth" unicode="&#xf0;" horiz-adv-x="1008" 
d="M864 518q55 -56 80 -118.5t25 -116.5q0 -164 -134 -231t-337 -67q-147 0 -251 30.5t-158 89t-54 140.5q0 121 96.5 175.5t256.5 54.5q129 0 228.5 -33t146.5 -92q-33 101 -151 151.5t-356 50.5v153q330 0 519 -116l134 116l79 -82zM779 238v2q-1 47 -86 67t-185 20
q-224 0 -224 -93q0 -54 58.5 -75t175.5 -21q260 0 261 100z" />
    <glyph glyph-name="ntilde" unicode="&#xf1;" horiz-adv-x="998" 
d="M866.5 443.5q86.5 -61.5 86.5 -206.5v-237h-240v207q0 51 -17 81t-56 43.5t-107 13.5q-80 0 -144.5 -22t-103.5 -45v-278h-240v490h240v-151q22 37 67.5 74.5t120 64.5t172.5 27q135 0 221.5 -61.5zM676 603h-254v151h254v-151z" />
    <glyph glyph-name="ograve" unicode="&#xf2;" horiz-adv-x="1016" 
d="M151 46q-116 61 -116 198t116.5 199t358.5 62q240 0 355.5 -62t115.5 -199t-115 -198t-356 -61q-243 0 -359 61zM678.5 162.5q57.5 27.5 57.5 81.5t-57.5 82.5t-168.5 28.5q-112 0 -171 -28.5t-59 -82.5t58.5 -81.5t171.5 -27.5q111 0 168.5 27.5zM637 753v-150h-254v150
h254z" />
    <glyph glyph-name="oacute" unicode="&#xf3;" horiz-adv-x="1016" 
d="M151 46q-116 61 -116 198t116.5 199t358.5 62q240 0 355.5 -62t115.5 -199t-115 -198t-356 -61q-243 0 -359 61zM678.5 162.5q57.5 27.5 57.5 81.5t-57.5 82.5t-168.5 28.5q-112 0 -171 -28.5t-59 -82.5t58.5 -81.5t171.5 -27.5q111 0 168.5 27.5zM637 603h-254v151h254
v-151z" />
    <glyph glyph-name="ocircumflex" unicode="&#xf4;" horiz-adv-x="1016" 
d="M151 46q-116 61 -116 198t116.5 199t358.5 62q240 0 355.5 -62t115.5 -199t-115 -198t-356 -61q-243 0 -359 61zM678.5 162.5q57.5 27.5 57.5 81.5t-57.5 82.5t-168.5 28.5q-112 0 -171 -28.5t-59 -82.5t58.5 -81.5t171.5 -27.5q111 0 168.5 27.5zM637 603h-254v151h254
v-151z" />
    <glyph glyph-name="otilde" unicode="&#xf5;" horiz-adv-x="1016" 
d="M151 46q-116 61 -116 198t116.5 199t358.5 62q240 0 355.5 -62t115.5 -199t-115 -198t-356 -61q-243 0 -359 61zM678.5 162.5q57.5 27.5 57.5 81.5t-57.5 82.5t-168.5 28.5q-112 0 -171 -28.5t-59 -82.5t58.5 -81.5t171.5 -27.5q111 0 168.5 27.5zM637 603h-254v151h254
v-151z" />
    <glyph glyph-name="odieresis" unicode="&#xf6;" horiz-adv-x="1016" 
d="M151 46q-116 61 -116 198t116.5 199t358.5 62q240 0 355.5 -62t115.5 -199t-115 -198t-356 -61q-243 0 -359 61zM678.5 162.5q57.5 27.5 57.5 81.5t-57.5 82.5t-168.5 28.5q-112 0 -171 -28.5t-59 -82.5t58.5 -81.5t171.5 -27.5q111 0 168.5 27.5zM485 602h-254v151h254
v-151zM789 602h-254v151h254v-151z" />
    <glyph glyph-name="divide" unicode="&#xf7;" horiz-adv-x="640" 
d="M590 335v-150h-540v150h143v92h254v-92h143zM193 37h254v-100h-254v100z" />
    <glyph glyph-name="oslash" unicode="&#xf8;" horiz-adv-x="1016" 
d="M909 413.5q72 -60.5 72 -169.5q0 -137 -115 -198t-356 -61q-71 0 -120 4l-45 -76l-52 32l30 51q-146 20 -217 80t-71 168q0 137 116.5 199t358.5 62q66 0 111 -4l48 81l54 -30l-34 -58q148 -20 220 -80.5zM409 142l126 213h-25q-112 0 -171 -28.5t-59 -82.5
q0 -81 129 -102zM678.5 162.5q57.5 27.5 57.5 81.5q0 41 -33.5 68t-99.5 37l-126 -213q10 -1 33 -1q111 0 168.5 27.5z" />
    <glyph glyph-name="ugrave" unicode="&#xf9;" horiz-adv-x="998" 
d="M953 490v-490h-240v169q-21 -42 -66.5 -84.5t-116 -71t-157.5 -28.5q-147 0 -237.5 63t-90.5 210v232h240v-207q0 -55 18.5 -84.5t57 -41.5t104.5 -12q84 0 147.5 31.5t100.5 66.5v247h240zM640 753v-150h-254v150h254z" />
    <glyph glyph-name="uacute" unicode="&#xfa;" horiz-adv-x="998" 
d="M953 490v-490h-240v169q-21 -42 -66.5 -84.5t-116 -71t-157.5 -28.5q-147 0 -237.5 63t-90.5 210v232h240v-207q0 -55 18.5 -84.5t57 -41.5t104.5 -12q84 0 147.5 31.5t100.5 66.5v247h240zM640 603h-254v151h254v-151z" />
    <glyph glyph-name="ucircumflex" unicode="&#xfb;" horiz-adv-x="998" 
d="M953 490v-490h-240v169q-21 -42 -66.5 -84.5t-116 -71t-157.5 -28.5q-147 0 -237.5 63t-90.5 210v232h240v-207q0 -55 18.5 -84.5t57 -41.5t104.5 -12q84 0 147.5 31.5t100.5 66.5v247h240zM640 603h-254v151h254v-151z" />
    <glyph glyph-name="udieresis" unicode="&#xfc;" horiz-adv-x="998" 
d="M953 490v-490h-240v169q-21 -42 -66.5 -84.5t-116 -71t-157.5 -28.5q-147 0 -237.5 63t-90.5 210v232h240v-207q0 -55 18.5 -84.5t57 -41.5t104.5 -12q84 0 147.5 31.5t100.5 66.5v247h240zM488 602h-254v151h254v-151zM792 602h-254v151h254v-151z" />
    <glyph glyph-name="yacute" unicode="&#xfd;" horiz-adv-x="930" 
d="M925 490l-487 -690h-245l150 203l-338 487h255l199 -320l211 320h255zM602 603h-254v151h254v-151z" />
    <glyph glyph-name="thorn" unicode="&#xfe;" horiz-adv-x="1063" 
d="M848 473q85 -31 132.5 -89.5t47.5 -138.5q0 -84 -47.5 -142.5t-131.5 -88t-194 -29.5q-140 0 -236.5 45t-133.5 123v-353h-240v890h240v-353q37 78 133.5 122.5t236.5 44.5q108 0 193 -31zM724 165q55 27 55 80t-55.5 80t-158.5 27q-280 0 -280 -107q0 -59 75.5 -83
t204.5 -24q104 0 159 27z" />
    <glyph glyph-name="ydieresis" unicode="&#xff;" horiz-adv-x="930" 
d="M925 490l-487 -690h-245l150 203l-338 487h255l199 -320l211 320h255zM450 602h-254v151h254v-151zM754 602h-254v151h254v-151z" />
    <glyph glyph-name="Amacron" unicode="&#x100;" horiz-adv-x="1160" 
d="M812 97h-464l-63 -97h-275l429 640h278l433 -640h-275zM715 247l-136 210l-135 -210h271zM705 693h-254v151h254v-151z" />
    <glyph glyph-name="amacron" unicode="&#x101;" horiz-adv-x="1063" 
d="M1018 490v-490h-226q-11 63 -14 154q-36 -78 -133 -123t-237 -45q-108 0 -193 31t-132.5 89.5t-47.5 138.5q0 84 47.5 142.5t131.5 88t194 29.5q140 0 236.5 -45t133.5 -123v153h240zM778 245q0 59 -75.5 83t-204.5 24q-104 0 -159 -27t-55 -80t55.5 -80t158.5 -27
q280 0 280 107zM625 603h-254v151h254v-151z" />
    <glyph glyph-name="Abreve" unicode="&#x102;" horiz-adv-x="1160" 
d="M812 97h-464l-63 -97h-275l429 640h278l433 -640h-275zM715 247l-136 210l-135 -210h271zM705 693h-254v151h254v-151z" />
    <glyph glyph-name="abreve" unicode="&#x103;" horiz-adv-x="1063" 
d="M1018 490v-490h-226q-11 63 -14 154q-36 -78 -133 -123t-237 -45q-108 0 -193 31t-132.5 89.5t-47.5 138.5q0 84 47.5 142.5t131.5 88t194 29.5q140 0 236.5 -45t133.5 -123v153h240zM778 245q0 59 -75.5 83t-204.5 24q-104 0 -159 -27t-55 -80t55.5 -80t158.5 -27
q280 0 280 107zM625 603h-254v151h254v-151z" />
    <glyph glyph-name="Aogonek" unicode="&#x104;" horiz-adv-x="1160" 
d="M812 97h-464l-63 -97h-275l429 640h278l433 -640h-275zM715 247l-136 210l-135 -210h271zM1144 -200h-254v151h254v-151z" />
    <glyph glyph-name="aogonek" unicode="&#x105;" horiz-adv-x="1063" 
d="M1018 490v-490h-226q-11 63 -14 154q-36 -78 -133 -123t-237 -45q-108 0 -193 31t-132.5 89.5t-47.5 138.5q0 84 47.5 142.5t131.5 88t194 29.5q140 0 236.5 -45t133.5 -123v153h240zM778 245q0 59 -75.5 83t-204.5 24q-104 0 -159 -27t-55 -80t55.5 -80t158.5 -27
q280 0 280 107zM1023 -200h-254v151h254v-151z" />
    <glyph glyph-name="Cacute" unicode="&#x106;" horiz-adv-x="1316" 
d="M1106.5 51.5q-140.5 -71.5 -423.5 -71.5q-205 0 -340.5 30t-209 103.5t-73.5 201.5t73.5 204t210 108.5t339.5 32.5q280 0 422.5 -76.5t150.5 -222.5h-260q-22 43 -93 68.5t-220 25.5q-191 0 -276.5 -33.5t-85.5 -106.5q0 -74 85.5 -107t276.5 -33q149 0 219.5 25
t92.5 67h260q-8 -144 -148.5 -215.5zM790 703h-254v151h254v-151z" />
    <glyph glyph-name="cacute" unicode="&#x107;" horiz-adv-x="994" 
d="M853 43.5q-106 -58.5 -333 -58.5q-242 0 -363.5 60.5t-121.5 198.5t122 199.5t363 61.5q226 0 331 -58.5t107 -168.5h-220q-17 31 -74 50.5t-144 19.5q-115 0 -177.5 -24.5t-62.5 -79.5t61.5 -78.5t178.5 -23.5q87 0 144.5 19.5t74.5 51.5h220q0 -111 -106 -169.5z
M635 603h-254v151h254v-151z" />
    <glyph glyph-name="Cdotaccent" unicode="&#x10a;" horiz-adv-x="1316" 
d="M1106.5 51.5q-140.5 -71.5 -423.5 -71.5q-205 0 -340.5 30t-209 103.5t-73.5 201.5t73.5 204t210 108.5t339.5 32.5q280 0 422.5 -76.5t150.5 -222.5h-260q-22 43 -93 68.5t-220 25.5q-191 0 -276.5 -33.5t-85.5 -106.5q0 -74 85.5 -107t276.5 -33q149 0 219.5 25
t92.5 67h260q-8 -144 -148.5 -215.5zM790 703h-254v151h254v-151z" />
    <glyph glyph-name="cdotaccent" unicode="&#x10b;" horiz-adv-x="994" 
d="M853 43.5q-106 -58.5 -333 -58.5q-242 0 -363.5 60.5t-121.5 198.5t122 199.5t363 61.5q226 0 331 -58.5t107 -168.5h-220q-17 31 -74 50.5t-144 19.5q-115 0 -177.5 -24.5t-62.5 -79.5t61.5 -78.5t178.5 -23.5q87 0 144.5 19.5t74.5 51.5h220q0 -111 -106 -169.5z
M635 603h-254v151h254v-151z" />
    <glyph glyph-name="Ccaron" unicode="&#x10c;" horiz-adv-x="1316" 
d="M1106.5 51.5q-140.5 -71.5 -423.5 -71.5q-205 0 -340.5 30t-209 103.5t-73.5 201.5t73.5 204t210 108.5t339.5 32.5q280 0 422.5 -76.5t150.5 -222.5h-260q-22 43 -93 68.5t-220 25.5q-191 0 -276.5 -33.5t-85.5 -106.5q0 -74 85.5 -107t276.5 -33q149 0 219.5 25
t92.5 67h260q-8 -144 -148.5 -215.5zM790 703h-254v151h254v-151z" />
    <glyph glyph-name="ccaron" unicode="&#x10d;" horiz-adv-x="994" 
d="M853 43.5q-106 -58.5 -333 -58.5q-242 0 -363.5 60.5t-121.5 198.5t122 199.5t363 61.5q226 0 331 -58.5t107 -168.5h-220q-17 31 -74 50.5t-144 19.5q-115 0 -177.5 -24.5t-62.5 -79.5t61.5 -78.5t178.5 -23.5q87 0 144.5 19.5t74.5 51.5h220q0 -111 -106 -169.5z
M635 603h-254v151h254v-151z" />
    <glyph glyph-name="Dcaron" unicode="&#x10e;" horiz-adv-x="1302" 
d="M1242 320q0 -90 -44 -161.5t-145 -115t-263 -43.5h-720v640h720q452 0 452 -320zM936 229q46 29 46 91t-46 91t-156 29h-460v-240h460q110 0 156 29zM725 693h-254v151h254v-151z" />
    <glyph glyph-name="dcaron" unicode="&#x10f;" horiz-adv-x="1098" 
d="M1018 690v-690h-226q-11 63 -14 154q-36 -78 -133 -123t-237 -45q-108 0 -193 31t-132.5 89.5t-47.5 138.5q0 84 47.5 142.5t131.5 88t194 29.5q140 0 236.5 -45t133.5 -123v353h240zM778 245q0 59 -75.5 83t-204.5 24q-104 0 -159 -27t-55 -80t55.5 -80t158.5 -27
q280 0 280 107zM651 603h-254v151h254v-151z" />
    <glyph glyph-name="Dcroat" unicode="&#x110;" horiz-adv-x="1302" 
d="M1242 320q0 -90 -44 -161.5t-145 -115t-263 -43.5h-720v298h-86v65h86v277h720q452 0 452 -320zM936 229q46 29 46 91t-46 91t-156 29h-460v-77h154v-65h-154v-98h460q110 0 156 29z" />
    <glyph glyph-name="dcroat" unicode="&#x111;" horiz-adv-x="1098" 
d="M1088 526h-70v-526h-226q-11 63 -14 154q-36 -78 -133 -123t-237 -45q-108 0 -193 31t-132.5 89.5t-47.5 138.5q0 84 47.5 142.5t131.5 88t194 29.5q140 0 236.5 -45t133.5 -123v189h-180v65h180v99h240v-99h70v-65zM778 245q0 59 -75.5 83t-204.5 24q-104 0 -159 -27
t-55 -80t55.5 -80t158.5 -27q280 0 280 107z" />
    <glyph glyph-name="Emacron" unicode="&#x112;" horiz-adv-x="1140" 
d="M1080 190v-190h-1010v640h1008v-190h-758v-80h620v-100h-620v-80h760zM712 693h-254v151h254v-151z" />
    <glyph glyph-name="emacron" unicode="&#x113;" horiz-adv-x="994" 
d="M957 176q-15 -91 -121 -141t-313 -50q-240 0 -364 59.5t-124 199.5q0 139 123 200t365 61q155 0 251 -27t141.5 -88t43.5 -163h-680q8 -43 63 -69.5t171 -26.5q87 0 142 11.5t66 33.5h236zM398 348q-49 -10 -77 -25.5t-35 -31.5h440q-9 28 -61.5 47.5t-151.5 19.5
q-66 0 -115 -10zM640 603h-254v151h254v-151z" />
    <glyph glyph-name="Edotaccent" unicode="&#x116;" horiz-adv-x="1140" 
d="M1080 190v-190h-1010v640h1008v-190h-758v-80h620v-100h-620v-80h760zM712 693h-254v151h254v-151z" />
    <glyph glyph-name="edotaccent" unicode="&#x117;" horiz-adv-x="994" 
d="M957 176q-15 -91 -121 -141t-313 -50q-240 0 -364 59.5t-124 199.5q0 139 123 200t365 61q155 0 251 -27t141.5 -88t43.5 -163h-680q8 -43 63 -69.5t171 -26.5q87 0 142 11.5t66 33.5h236zM398 348q-49 -10 -77 -25.5t-35 -31.5h440q-9 28 -61.5 47.5t-151.5 19.5
q-66 0 -115 -10zM640 603h-254v151h254v-151z" />
    <glyph glyph-name="Eogonek" unicode="&#x118;" horiz-adv-x="1140" 
d="M1080 190v-190h-1010v640h1008v-190h-758v-80h620v-100h-620v-80h760zM1107 -200h-254v151h254v-151z" />
    <glyph glyph-name="eogonek" unicode="&#x119;" horiz-adv-x="994" 
d="M957 176q-15 -91 -121 -141t-313 -50q-240 0 -364 59.5t-124 199.5q0 139 123 200t365 61q155 0 251 -27t141.5 -88t43.5 -163h-680q8 -43 63 -69.5t171 -26.5q87 0 142 11.5t66 33.5h236zM398 348q-49 -10 -77 -25.5t-35 -31.5h440q-9 28 -61.5 47.5t-151.5 19.5
q-66 0 -115 -10zM979 -200h-254v151h254v-151z" />
    <glyph glyph-name="Ecaron" unicode="&#x11a;" horiz-adv-x="1140" 
d="M1080 190v-190h-1010v640h1008v-190h-758v-80h620v-100h-620v-80h760zM712 693h-254v151h254v-151z" />
    <glyph glyph-name="ecaron" unicode="&#x11b;" horiz-adv-x="994" 
d="M957 176q-15 -91 -121 -141t-313 -50q-240 0 -364 59.5t-124 199.5q0 139 123 200t365 61q155 0 251 -27t141.5 -88t43.5 -163h-680q8 -43 63 -69.5t171 -26.5q87 0 142 11.5t66 33.5h236zM398 348q-49 -10 -77 -25.5t-35 -31.5h440q-9 28 -61.5 47.5t-151.5 19.5
q-66 0 -115 -10zM640 603h-254v151h254v-151z" />
    <glyph glyph-name="Gbreve" unicode="&#x11e;" horiz-adv-x="1350" 
d="M1074 0q0 62 37 173q-51 -89 -169 -141t-289 -52q-285 0 -439 74.5t-154 260.5q0 188 160.5 266.5t462.5 78.5q273 0 419 -75.5t154 -213.5h-260q-54 84 -313 84q-191 0 -276.5 -33.5t-85.5 -106.5q0 -50 38.5 -80.5t122 -45t221.5 -14.5q185 0 326 43l-182 -2v105h423
l10 -321h-206zM808 703h-254v151h254v-151z" />
    <glyph glyph-name="gbreve" unicode="&#x11f;" horiz-adv-x="969" 
d="M949 506v-127q-10 -1 -30 -1q-73 0 -158 17q99 -52 99 -132q0 -96 -99.5 -145t-311.5 -49q-85 0 -117.5 -9t-32.5 -33q0 -27 48 -27h295q101 0 156.5 -14.5t79.5 -48.5t24 -95v-57h-240v27q0 28 -26.5 34.5t-83.5 6.5h-279q-128 0 -173 32t-45 83q0 56 55 81t175 30
q-128 18 -189 68.5t-61 135.5q0 104 101.5 163t312.5 59zM588 224q44 20 44 55q0 75 -183 75q-96 0 -141 -20t-45 -55t44.5 -55t141.5 -20q95 0 139 20zM576 603h-254v151h254v-151z" />
    <glyph glyph-name="Gdotaccent" unicode="&#x120;" horiz-adv-x="1350" 
d="M1074 0q0 62 37 173q-51 -89 -169 -141t-289 -52q-285 0 -439 74.5t-154 260.5q0 188 160.5 266.5t462.5 78.5q273 0 419 -75.5t154 -213.5h-260q-54 84 -313 84q-191 0 -276.5 -33.5t-85.5 -106.5q0 -50 38.5 -80.5t122 -45t221.5 -14.5q185 0 326 43l-182 -2v105h423
l10 -321h-206zM808 703h-254v151h254v-151z" />
    <glyph glyph-name="gdotaccent" unicode="&#x121;" horiz-adv-x="969" 
d="M949 506v-127q-10 -1 -30 -1q-73 0 -158 17q99 -52 99 -132q0 -96 -99.5 -145t-311.5 -49q-85 0 -117.5 -9t-32.5 -33q0 -27 48 -27h295q101 0 156.5 -14.5t79.5 -48.5t24 -95v-57h-240v27q0 28 -26.5 34.5t-83.5 6.5h-279q-128 0 -173 32t-45 83q0 56 55 81t175 30
q-128 18 -189 68.5t-61 135.5q0 104 101.5 163t312.5 59zM588 224q44 20 44 55q0 75 -183 75q-96 0 -141 -20t-45 -55t44.5 -55t141.5 -20q95 0 139 20zM576 603h-254v151h254v-151z" />
    <glyph glyph-name="uni0122" unicode="&#x122;" horiz-adv-x="1350" 
d="M1074 0q0 62 37 173q-51 -89 -169 -141t-289 -52q-285 0 -439 74.5t-154 260.5q0 188 160.5 266.5t462.5 78.5q273 0 419 -75.5t154 -213.5h-260q-54 84 -313 84q-191 0 -276.5 -33.5t-85.5 -106.5q0 -50 38.5 -80.5t122 -45t221.5 -14.5q185 0 326 43l-182 -2v105h423
l10 -321h-206zM808 -200h-254v151h254v-151z" />
    <glyph glyph-name="uni0123" unicode="&#x123;" horiz-adv-x="969" 
d="M576 559h-254v151h254v-151zM949 506v-127q-10 -1 -30 -1q-73 0 -158 17q99 -52 99 -132q0 -96 -99.5 -145t-311.5 -49q-85 0 -117.5 -9t-32.5 -33q0 -27 48 -27h295q101 0 156.5 -14.5t79.5 -48.5t24 -95v-57h-240v27q0 28 -26.5 34.5t-83.5 6.5h-279q-128 0 -173 32
t-45 83q0 56 55 81t175 30q-128 18 -189 68.5t-61 135.5q0 104 101.5 163t312.5 59zM588 224q44 20 44 55q0 75 -183 75q-96 0 -141 -20t-45 -55t44.5 -55t141.5 -20q95 0 139 20z" />
    <glyph glyph-name="Hbar" unicode="&#x126;" horiz-adv-x="1280" 
d="M1250 460h-39v-460h-250v229h-640v-229h-250v460h-41v75h41v105h250v-105h640v105h250v-105h39v-75zM961 460h-640v-41h640v41z" />
    <glyph glyph-name="hbar" unicode="&#x127;" horiz-adv-x="1008" 
d="M875.5 452.5q87.5 -52.5 87.5 -170.5v-282h-240v182q0 47 -18.5 77t-64.5 45.5t-127 15.5q-69 0 -125 -15.5t-93 -32.5v-272h-240v532h-56v65h56v93h240v-93h194v-65h-194v-192q22 35 68 72.5t120 65t172 27.5q133 0 220.5 -52.5z" />
    <glyph glyph-name="Imacron" unicode="&#x12a;" horiz-adv-x="420" 
d="M335 640v-640h-250v640h250zM337 693h-254v151h254v-151z" />
    <glyph glyph-name="imacron" unicode="&#x12b;" horiz-adv-x="350" 
d="M295 490v-490h-240v490h240zM302 598h-254v151h254v-151z" />
    <glyph glyph-name="Iogonek" unicode="&#x12e;" horiz-adv-x="420" 
d="M335 640v-640h-250v640h250zM337 -200h-254v151h254v-151z" />
    <glyph glyph-name="iogonek" unicode="&#x12f;" horiz-adv-x="364" 
d="M309 597h-254v150h254v-150zM302 490v-490h-240v490h240zM392 -200h-254v151h254v-151z" />
    <glyph glyph-name="Idotaccent" unicode="&#x130;" horiz-adv-x="420" 
d="M335 640v-640h-250v640h250zM337 693h-254v151h254v-151z" />
    <glyph glyph-name="dotlessi" unicode="&#x131;" horiz-adv-x="350" 
d="M295 490v-490h-240v490h240z" />
    <glyph glyph-name="IJ" unicode="&#x132;" horiz-adv-x="1058" 
d="M988 640v-341q0 -80 -48 -150.5t-149.5 -114.5t-252.5 -44q-121 0 -222.5 29.5t-165.5 97.5t-65 177h240q13 -62 63.5 -89t149.5 -27q116 0 158 39t42 112v311h250zM326 344h-240v296h240v-296z" />
    <glyph glyph-name="ij" unicode="&#x133;" horiz-adv-x="728" 
d="M309 597h-254v150h254v-150zM302 490v-490h-240v490h240zM673 597h-254v150h254v-150zM666 490v-690h-240v690h240z" />
    <glyph glyph-name="uni0136" unicode="&#x136;" horiz-adv-x="1215" 
d="M798 0l-478 338v-338h-250v640h250v-298l410 298h396l-460 -298l514 -342h-382zM681 -200h-254v151h254v-151z" />
    <glyph glyph-name="uni0137" unicode="&#x137;" horiz-adv-x="942" 
d="M55 690h240v-690h-240v690zM937 0l-304 -2l-334 281l286 211h318l-306 -214zM576 -200h-254v151h254v-151z" />
    <glyph glyph-name="Lacute" unicode="&#x139;" horiz-adv-x="943" 
d="M903 190v-190h-734v0h-99v640h250v-450h583zM650 693h-254v151h254v-151z" />
    <glyph glyph-name="lacute" unicode="&#x13a;" horiz-adv-x="360" 
d="M300 690v-690h-240v690h240zM314 793h-254v151h254v-151z" />
    <glyph glyph-name="uni013B" unicode="&#x13b;" horiz-adv-x="943" 
d="M903 190v-190h-734v0h-99v640h250v-450h583zM650 -200h-254v151h254v-151z" />
    <glyph glyph-name="uni013C" unicode="&#x13c;" horiz-adv-x="360" 
d="M300 690v-690h-240v690h240zM308 -200h-254v151h254v-151z" />
    <glyph glyph-name="Lcaron" unicode="&#x13d;" horiz-adv-x="943" 
d="M903 190v-190h-734v0h-99v640h250v-450h583zM650 693h-254v151h254v-151z" />
    <glyph glyph-name="lcaron" unicode="&#x13e;" horiz-adv-x="614" 
d="M300 690v-690h-240v690h240zM614 540h-254v151h254v-151z" />
    <glyph glyph-name="Ldot" unicode="&#x13f;" horiz-adv-x="943" 
d="M903 190v-190h-734v0h-99v640h250v-450h583zM721 337h-254v151h254v-151z" />
    <glyph glyph-name="ldot" unicode="&#x140;" horiz-adv-x="659" 
d="M300 690v-690h-240v690h240zM599 197h-254v151h254v-151z" />
    <glyph glyph-name="Lslash" unicode="&#x141;" horiz-adv-x="943" 
d="M903 190v-190h-734v0h-99v213l-58 -39l-35 53l93 63v350h250v-178l65 45l37 -53l-102 -70v-194h583z" />
    <glyph glyph-name="lslash" unicode="&#x142;" horiz-adv-x="381" 
d="M311 389v-389h-240v225l-66 -45l-35 53l101 69v388h240v-223l63 43l37 -53z" />
    <glyph glyph-name="Nacute" unicode="&#x143;" horiz-adv-x="1300" 
d="M1230 640v-640h-250l-660 382v-382h-250v640h250l660 -389v389h250zM781 693h-254v151h254v-151z" />
    <glyph glyph-name="nacute" unicode="&#x144;" horiz-adv-x="998" 
d="M866.5 443.5q86.5 -61.5 86.5 -206.5v-237h-240v207q0 51 -17 81t-56 43.5t-107 13.5q-80 0 -144.5 -22t-103.5 -45v-278h-240v490h240v-151q22 37 67.5 74.5t120 64.5t172.5 27q135 0 221.5 -61.5zM676 603h-254v151h254v-151z" />
    <glyph glyph-name="uni0145" unicode="&#x145;" horiz-adv-x="1300" 
d="M1230 640v-640h-250l-660 382v-382h-250v640h250l660 -389v389h250zM791 -200h-254v151h254v-151z" />
    <glyph glyph-name="uni0146" unicode="&#x146;" horiz-adv-x="998" 
d="M866.5 443.5q86.5 -61.5 86.5 -206.5v-237h-240v207q0 51 -17 81t-56 43.5t-107 13.5q-80 0 -144.5 -22t-103.5 -45v-278h-240v490h240v-151q22 37 67.5 74.5t120 64.5t172.5 27q135 0 221.5 -61.5zM626 -200h-254v151h254v-151z" />
    <glyph glyph-name="Ncaron" unicode="&#x147;" horiz-adv-x="1300" 
d="M1230 640v-640h-250l-660 382v-382h-250v640h250l660 -389v389h250zM781 693h-254v151h254v-151z" />
    <glyph glyph-name="ncaron" unicode="&#x148;" horiz-adv-x="998" 
d="M866.5 443.5q86.5 -61.5 86.5 -206.5v-237h-240v207q0 51 -17 81t-56 43.5t-107 13.5q-80 0 -144.5 -22t-103.5 -45v-278h-240v490h240v-151q22 37 67.5 74.5t120 64.5t172.5 27q135 0 221.5 -61.5zM676 603h-254v151h254v-151z" />
    <glyph glyph-name="Eng" unicode="&#x14a;" horiz-adv-x="1300" 
d="M1230 640v-700q0 -91 -73.5 -121.5t-194.5 -30.5l-68 1q-19 1 -54 1v170q140 0 140 40l-660 382v-382h-250v640h250l660 -389v389h250z" />
    <glyph glyph-name="eng" unicode="&#x14b;" horiz-adv-x="998" 
d="M866.5 443.5q86.5 -61.5 86.5 -206.5v-307q0 -61 -32.5 -91t-116 -42t-251.5 -12v165q65 0 99 4t47.5 14.5t13.5 31.5v207q0 51 -17 81t-56 43.5t-107 13.5q-80 0 -144.5 -22t-103.5 -45v-278h-240v490h240v-151q22 37 67.5 74.5t120 64.5t172.5 27q135 0 221.5 -61.5z
" />
    <glyph glyph-name="Omacron" unicode="&#x14c;" horiz-adv-x="1330" 
d="M315.5 18q-133.5 38 -194.5 113t-61 189t61 189t194.5 113t349.5 38t349.5 -38t194.5 -113t61 -189t-61 -189t-194.5 -113t-349.5 -38t-349.5 38zM915.5 211q84.5 31 84.5 109q0 75 -84.5 105t-250.5 30q-167 0 -256 -30.5t-89 -104.5q0 -78 88.5 -109t256.5 -31
q166 0 250.5 31zM792 703h-254v151h254v-151z" />
    <glyph glyph-name="omacron" unicode="&#x14d;" horiz-adv-x="1016" 
d="M151 46q-116 61 -116 198t116.5 199t358.5 62q240 0 355.5 -62t115.5 -199t-115 -198t-356 -61q-243 0 -359 61zM678.5 162.5q57.5 27.5 57.5 81.5t-57.5 82.5t-168.5 28.5q-112 0 -171 -28.5t-59 -82.5t58.5 -81.5t171.5 -27.5q111 0 168.5 27.5zM637 603h-254v151h254
v-151z" />
    <glyph glyph-name="Ohungarumlaut" unicode="&#x150;" horiz-adv-x="1330" 
d="M315.5 18q-133.5 38 -194.5 113t-61 189t61 189t194.5 113t349.5 38t349.5 -38t194.5 -113t61 -189t-61 -189t-194.5 -113t-349.5 -38t-349.5 38zM915.5 211q84.5 31 84.5 109q0 75 -84.5 105t-250.5 30q-167 0 -256 -30.5t-89 -104.5q0 -78 88.5 -109t256.5 -31
q166 0 250.5 31zM640 702h-254v151h254v-151zM944 702h-254v151h254v-151z" />
    <glyph glyph-name="ohungarumlaut" unicode="&#x151;" horiz-adv-x="1016" 
d="M151 46q-116 61 -116 198t116.5 199t358.5 62q240 0 355.5 -62t115.5 -199t-115 -198t-356 -61q-243 0 -359 61zM678.5 162.5q57.5 27.5 57.5 81.5t-57.5 82.5t-168.5 28.5q-112 0 -171 -28.5t-59 -82.5t58.5 -81.5t171.5 -27.5q111 0 168.5 27.5zM485 602h-254v151h254
v-151zM789 602h-254v151h254v-151z" />
    <glyph glyph-name="OE" unicode="&#x152;" horiz-adv-x="1962" 
d="M1902 0h-967q-117 -20 -270 -20q-216 0 -349.5 38t-194.5 113t-61 189t61 189t194.5 113t349.5 38q153 0 270 -20h965v-190h-655q14 -31 20 -65h497v-130h-497q-6 -34 -20 -65h657v-190zM408.5 211q88.5 -31 256.5 -31q166 0 250.5 31t84.5 109q0 75 -84.5 105t-250.5 30
q-167 0 -256 -30.5t-89 -104.5q0 -78 88.5 -109z" />
    <glyph glyph-name="oe" unicode="&#x153;" horiz-adv-x="1796" 
d="M1575.5 478q95.5 -27 141 -88t44.5 -163h-681q8 -43 63.5 -69.5t171.5 -26.5q87 0 142 11.5t66 33.5h235q-15 -91 -120.5 -141t-312.5 -50q-148 0 -251.5 21.5t-162.5 70.5q-54 -48 -153.5 -70t-247.5 -22q-243 0 -359 61t-116 198t116.5 199t358.5 62q147 0 246.5 -22.5
t154.5 -70.5q58 48 161.5 70.5t252.5 22.5q155 0 250.5 -27zM1528 291q-9 28 -61.5 47.5t-151.5 19.5q-66 0 -115 -10t-77 -25.5t-35 -31.5h440zM678.5 162.5q57.5 27.5 57.5 81.5t-57.5 82.5t-168.5 28.5q-112 0 -171 -28.5t-59 -82.5t58.5 -81.5t171.5 -27.5
q111 0 168.5 27.5z" />
    <glyph glyph-name="Racute" unicode="&#x154;" horiz-adv-x="1232" 
d="M1110.5 209q30.5 -23 30.5 -72v-137h-250v107q0 31 -17 46t-58.5 21t-124.5 6h-371v-180h-250v640h773q148 0 234.5 -51.5t86.5 -168.5q0 -83 -43 -124.5t-120 -55.5q79 -8 109.5 -31zM843 347q33 0 52 10.5t19 37.5q0 45 -71 45h-523v-93h523zM731 693h-254v151h254
v-151z" />
    <glyph glyph-name="racute" unicode="&#x155;" horiz-adv-x="563" 
d="M543 305q-94 0 -158.5 -21.5t-99.5 -44.5v-239h-240v490h240v-169q18 43 52.5 85t87.5 70.5t118 28.5v-200zM469 603h-254v151h254v-151z" />
    <glyph glyph-name="uni0156" unicode="&#x156;" horiz-adv-x="1232" 
d="M1110.5 209q30.5 -23 30.5 -72v-137h-250v107q0 31 -17 46t-58.5 21t-124.5 6h-371v-180h-250v640h773q148 0 234.5 -51.5t86.5 -168.5q0 -83 -43 -124.5t-120 -55.5q79 -8 109.5 -31zM843 347q33 0 52 10.5t19 37.5q0 45 -71 45h-523v-93h523zM721 -215h-254v151h254
v-151z" />
    <glyph glyph-name="uni0157" unicode="&#x157;" horiz-adv-x="563" 
d="M543 305q-94 0 -158.5 -21.5t-99.5 -44.5v-239h-240v490h240v-169q18 43 52.5 85t87.5 70.5t118 28.5v-200zM293 -200h-254v151h254v-151z" />
    <glyph glyph-name="Rcaron" unicode="&#x158;" horiz-adv-x="1232" 
d="M1110.5 209q30.5 -23 30.5 -72v-137h-250v107q0 31 -17 46t-58.5 21t-124.5 6h-371v-180h-250v640h773q148 0 234.5 -51.5t86.5 -168.5q0 -83 -43 -124.5t-120 -55.5q79 -8 109.5 -31zM843 347q33 0 52 10.5t19 37.5q0 45 -71 45h-523v-93h523zM731 693h-254v151h254
v-151z" />
    <glyph glyph-name="rcaron" unicode="&#x159;" horiz-adv-x="563" 
d="M543 305q-94 0 -158.5 -21.5t-99.5 -44.5v-239h-240v490h240v-169q18 43 52.5 85t87.5 70.5t118 28.5v-200zM469 603h-254v151h254v-151z" />
    <glyph glyph-name="Sacute" unicode="&#x15a;" horiz-adv-x="1061" 
d="M313 235q10 -29 80.5 -45.5t185.5 -16.5q76 0 118.5 4.5t61 15t18.5 29.5t-29.5 29.5t-101 14.5t-209.5 4q-204 0 -295.5 39.5t-91.5 127.5q0 113 118 168.5t361 55.5q233 0 355.5 -66.5t122.5 -191.5h-259q-5 32 -64.5 49t-164.5 17q-112 0 -163.5 -12t-51.5 -39
q0 -20 26.5 -30t94 -14t204.5 -4q145 0 230 -16t123.5 -51t38.5 -95q0 -82 -48.5 -131.5t-151.5 -73t-272 -23.5q-157 0 -272 30.5t-176 88t-61 136.5h273zM657 703h-254v151h254v-151z" />
    <glyph glyph-name="sacute" unicode="&#x15b;" horiz-adv-x="842" 
d="M261 176q13 -25 50 -32.5t117 -7.5q78 0 103.5 9t25.5 28q0 24 -47 33t-165 9q-105 0 -171.5 10t-102.5 37.5t-36 77.5q0 165 393 165q121 0 202.5 -25t120.5 -68t38 -98h-215q-11 25 -41 33t-105 8q-79 0 -111 -8.5t-32 -30.5q0 -16 16.5 -25t62 -13.5t133.5 -4.5
q100 0 163 -7t105 -35t42 -86q0 -160 -379 -160q-147 0 -233.5 28t-120.5 68.5t-34 82.5v12h221zM540 603h-254v151h254v-151z" />
    <glyph glyph-name="Scedilla" unicode="&#x15e;" horiz-adv-x="1061" 
d="M313 235q10 -29 80.5 -45.5t185.5 -16.5q76 0 118.5 4.5t61 15t18.5 29.5t-29.5 29.5t-101 14.5t-209.5 4q-204 0 -295.5 39.5t-91.5 127.5q0 113 118 168.5t361 55.5q233 0 355.5 -66.5t122.5 -191.5h-259q-5 32 -64.5 49t-164.5 17q-112 0 -163.5 -12t-51.5 -39
q0 -20 26.5 -30t94 -14t204.5 -4q145 0 230 -16t123.5 -51t38.5 -95q0 -82 -48.5 -131.5t-151.5 -73t-272 -23.5q-157 0 -272 30.5t-176 88t-61 136.5h273zM657 -215h-254v151h254v-151z" />
    <glyph glyph-name="scedilla" unicode="&#x15f;" horiz-adv-x="842" 
d="M261 176q13 -25 50 -32.5t117 -7.5q78 0 103.5 9t25.5 28q0 24 -47 33t-165 9q-105 0 -171.5 10t-102.5 37.5t-36 77.5q0 165 393 165q121 0 202.5 -25t120.5 -68t38 -98h-215q-11 25 -41 33t-105 8q-79 0 -111 -8.5t-32 -30.5q0 -16 16.5 -25t62 -13.5t133.5 -4.5
q100 0 163 -7t105 -35t42 -86q0 -160 -379 -160q-147 0 -233.5 28t-120.5 68.5t-34 82.5v12h221zM576 -210h-254v151h254v-151z" />
    <glyph glyph-name="Scaron" unicode="&#x160;" horiz-adv-x="1061" 
d="M313 235q10 -29 80.5 -45.5t185.5 -16.5q76 0 118.5 4.5t61 15t18.5 29.5t-29.5 29.5t-101 14.5t-209.5 4q-204 0 -295.5 39.5t-91.5 127.5q0 113 118 168.5t361 55.5q233 0 355.5 -66.5t122.5 -191.5h-259q-5 32 -64.5 49t-164.5 17q-112 0 -163.5 -12t-51.5 -39
q0 -20 26.5 -30t94 -14t204.5 -4q145 0 230 -16t123.5 -51t38.5 -95q0 -82 -48.5 -131.5t-151.5 -73t-272 -23.5q-157 0 -272 30.5t-176 88t-61 136.5h273zM657 703h-254v151h254v-151z" />
    <glyph glyph-name="scaron" unicode="&#x161;" horiz-adv-x="842" 
d="M261 176q13 -25 50 -32.5t117 -7.5q78 0 103.5 9t25.5 28q0 24 -47 33t-165 9q-105 0 -171.5 10t-102.5 37.5t-36 77.5q0 165 393 165q121 0 202.5 -25t120.5 -68t38 -98h-215q-11 25 -41 33t-105 8q-79 0 -111 -8.5t-32 -30.5q0 -16 16.5 -25t62 -13.5t133.5 -4.5
q100 0 163 -7t105 -35t42 -86q0 -160 -379 -160q-147 0 -233.5 28t-120.5 68.5t-34 82.5v12h221zM372 -253v150h254v-150h-254z" />
    <glyph glyph-name="uni0162" unicode="&#x162;" horiz-adv-x="1100" 
d="M1070 445h-395v-445h-250v445h-395v195h1040v-195zM677 -200h-254v151h254v-151z" />
    <glyph glyph-name="uni0163" unicode="&#x163;" horiz-adv-x="628" 
d="M608 340h-174v-340h-240v340h-174v150h174v150h240v-150h174v-150zM441 -200h-254v151h254v-151z" />
    <glyph glyph-name="Tcaron" unicode="&#x164;" horiz-adv-x="1100" 
d="M1070 445h-395v-445h-250v445h-395v195h1040v-195zM677 693h-254v151h254v-151z" />
    <glyph glyph-name="tcaron" unicode="&#x165;" horiz-adv-x="628" 
d="M608 340h-174v-340h-240v340h-174v150h174v150h240v-150h174v-150zM441 732h-254v151h254v-151z" />
    <glyph glyph-name="Tbar" unicode="&#x166;" horiz-adv-x="1100" 
d="M1070 445h-395v-445h-250v445h-395v195h1040v-195zM677 693h-254v151h254v-151z" />
    <glyph glyph-name="tbar" unicode="&#x167;" horiz-adv-x="628" 
d="M608 340h-174v-340h-240v340h-174v150h174v150h240v-150h174v-150zM441 732h-254v151h254v-151z" />
    <glyph glyph-name="Umacron" unicode="&#x16a;" horiz-adv-x="1289" 
d="M1219 640v-320q0 -194 -158.5 -267t-415.5 -73q-171 0 -296.5 27.5t-202 103t-76.5 209.5v320h250v-275q0 -76 37.5 -116t106 -53.5t181.5 -13.5q110 0 179 13.5t107 53.5t38 116v275h250zM772 693h-254v151h254v-151z" />
    <glyph glyph-name="umacron" unicode="&#x16b;" horiz-adv-x="998" 
d="M953 490v-490h-240v169q-21 -42 -66.5 -84.5t-116 -71t-157.5 -28.5q-147 0 -237.5 63t-90.5 210v232h240v-207q0 -55 18.5 -84.5t57 -41.5t104.5 -12q84 0 147.5 31.5t100.5 66.5v247h240zM640 603h-254v151h254v-151z" />
    <glyph glyph-name="Uring" unicode="&#x16e;" horiz-adv-x="1289" 
d="M1219 640v-320q0 -194 -158.5 -267t-415.5 -73q-171 0 -296.5 27.5t-202 103t-76.5 209.5v320h250v-275q0 -76 37.5 -116t106 -53.5t181.5 -13.5q110 0 179 13.5t107 53.5t38 116v275h250zM772 693h-254v151h254v-151z" />
    <glyph glyph-name="uring" unicode="&#x16f;" horiz-adv-x="998" 
d="M953 490v-490h-240v169q-21 -42 -66.5 -84.5t-116 -71t-157.5 -28.5q-147 0 -237.5 63t-90.5 210v232h240v-207q0 -55 18.5 -84.5t57 -41.5t104.5 -12q84 0 147.5 31.5t100.5 66.5v247h240zM640 603h-254v151h254v-151z" />
    <glyph glyph-name="Uhungarumlaut" unicode="&#x170;" horiz-adv-x="1289" 
d="M1219 640v-320q0 -194 -158.5 -267t-415.5 -73q-171 0 -296.5 27.5t-202 103t-76.5 209.5v320h250v-275q0 -76 37.5 -116t106 -53.5t181.5 -13.5q110 0 179 13.5t107 53.5t38 116v275h250zM620 490h-254v151h254v-151zM924 490h-254v151h254v-151z" />
    <glyph glyph-name="uhungarumlaut" unicode="&#x171;" horiz-adv-x="998" 
d="M953 490v-490h-240v169q-21 -42 -66.5 -84.5t-116 -71t-157.5 -28.5q-147 0 -237.5 63t-90.5 210v232h240v-207q0 -55 18.5 -84.5t57 -41.5t104.5 -12q84 0 147.5 31.5t100.5 66.5v247h240zM488 602h-254v151h254v-151zM792 602h-254v151h254v-151z" />
    <glyph glyph-name="Uogonek" unicode="&#x172;" horiz-adv-x="1289" 
d="M1219 640v-320q0 -194 -158.5 -267t-415.5 -73q-171 0 -296.5 27.5t-202 103t-76.5 209.5v320h250v-275q0 -76 37.5 -116t106 -53.5t181.5 -13.5q110 0 179 13.5t107 53.5t38 116v275h250zM1227 -215h-254v151h254v-151z" />
    <glyph glyph-name="uogonek" unicode="&#x173;" horiz-adv-x="998" 
d="M953 490v-490h-240v169q-21 -42 -66.5 -84.5t-116 -71t-157.5 -28.5q-147 0 -237.5 63t-90.5 210v232h240v-207q0 -55 18.5 -84.5t57 -41.5t104.5 -12q84 0 147.5 31.5t100.5 66.5v247h240zM970 -200h-254v151h254v-151z" />
    <glyph glyph-name="Wcircumflex" unicode="&#x174;" horiz-adv-x="1882" 
d="M1862 640l-354 -640h-338l-227 443l-227 -443h-338l-358 640h282l253 -499l237 499h302l237 -499l253 499h278zM1077 743h-254v151h254v-151z" />
    <glyph glyph-name="wcircumflex" unicode="&#x175;" horiz-adv-x="1462" 
d="M1457 490l-319 -490h-226l-184 289l-194 -289h-226l-303 490h264l163 -301l166 301h265l157 -301l172 301h265zM849 603h-254v151h254v-151z" />
    <glyph glyph-name="Ycircumflex" unicode="&#x176;" horiz-adv-x="1070" 
d="M1065 640l-405 -477v-163h-250v163l-405 477h295l236 -297l234 297h295zM662 693h-254v151h254v-151z" />
    <glyph glyph-name="ycircumflex" unicode="&#x177;" horiz-adv-x="930" 
d="M925 490l-487 -690h-245l150 203l-338 487h255l199 -320l211 320h255zM602 603h-254v151h254v-151z" />
    <glyph glyph-name="Ydieresis" unicode="&#x178;" horiz-adv-x="1070" 
d="M1065 640l-405 -477v-163h-250v163l-405 477h295l236 -297l234 297h295zM510 692h-254v151h254v-151zM814 692h-254v151h254v-151z" />
    <glyph glyph-name="Zacute" unicode="&#x179;" horiz-adv-x="1220" 
d="M1140 450l-628 -260h628v-190h-1060v190l631 260h-631v190h1060v-190zM737 743h-254v151h254v-151z" />
    <glyph glyph-name="zacute" unicode="&#x17a;" horiz-adv-x="896" 
d="M836 150v-150h-776v150l438 190h-438v150h770v-150l-442 -190h448zM571 603h-254v151h254v-151z" />
    <glyph glyph-name="Zdotaccent" unicode="&#x17b;" horiz-adv-x="1220" 
d="M1140 450l-628 -260h628v-190h-1060v190l631 260h-631v190h1060v-190zM737 743h-254v151h254v-151z" />
    <glyph glyph-name="zdotaccent" unicode="&#x17c;" horiz-adv-x="896" 
d="M836 150v-150h-776v150l438 190h-438v150h770v-150l-442 -190h448zM571 603h-254v151h254v-151z" />
    <glyph glyph-name="Zcaron" unicode="&#x17d;" horiz-adv-x="1220" 
d="M1140 450l-628 -260h628v-190h-1060v190l631 260h-631v190h1060v-190zM737 743h-254v151h254v-151z" />
    <glyph glyph-name="zcaron" unicode="&#x17e;" horiz-adv-x="896" 
d="M836 150v-150h-776v150l438 190h-438v150h770v-150l-442 -190h448zM571 603h-254v151h254v-151z" />
    <glyph glyph-name="florin" unicode="&#x192;" horiz-adv-x="1260" 
d="M1149.5 594q80.5 -66 80.5 -190h-220q-4 31 -32.5 48.5t-85.5 17.5q-72 0 -105 -27t-37 -85h117v-65h-118q-7 -146 -107 -224.5t-266 -78.5q-109 0 -187.5 32t-118.5 88t-40 127h220q7 -57 126 -57q65 0 97 26.5t36 86.5h-181v65h182q5 150 105.5 226t276.5 76
q177 0 257.5 -66z" />
    <glyph glyph-name="uni0218" unicode="&#x218;" horiz-adv-x="1061" 
d="M313 235q10 -29 80.5 -45.5t185.5 -16.5q76 0 118.5 4.5t61 15t18.5 29.5t-29.5 29.5t-101 14.5t-209.5 4q-204 0 -295.5 39.5t-91.5 127.5q0 113 118 168.5t361 55.5q233 0 355.5 -66.5t122.5 -191.5h-259q-5 32 -64.5 49t-164.5 17q-112 0 -163.5 -12t-51.5 -39
q0 -20 26.5 -30t94 -14t204.5 -4q145 0 230 -16t123.5 -51t38.5 -95q0 -82 -48.5 -131.5t-151.5 -73t-272 -23.5q-157 0 -272 30.5t-176 88t-61 136.5h273zM657 -215h-254v151h254v-151z" />
    <glyph glyph-name="uni0219" unicode="&#x219;" horiz-adv-x="842" 
d="M261 176q13 -25 50 -32.5t117 -7.5q78 0 103.5 9t25.5 28q0 24 -47 33t-165 9q-105 0 -171.5 10t-102.5 37.5t-36 77.5q0 165 393 165q121 0 202.5 -25t120.5 -68t38 -98h-215q-11 25 -41 33t-105 8q-79 0 -111 -8.5t-32 -30.5q0 -16 16.5 -25t62 -13.5t133.5 -4.5
q100 0 163 -7t105 -35t42 -86q0 -160 -379 -160q-147 0 -233.5 28t-120.5 68.5t-34 82.5v12h221zM576 -210h-254v151h254v-151z" />
    <glyph glyph-name="uni021A" unicode="&#x21a;" horiz-adv-x="1100" 
d="M1070 445h-395v-445h-250v445h-395v195h1040v-195zM677 -200h-254v151h254v-151z" />
    <glyph glyph-name="uni021B" unicode="&#x21b;" horiz-adv-x="628" 
d="M608 340h-174v-340h-240v340h-174v150h174v150h240v-150h174v-150zM441 -200h-254v151h254v-151z" />
    <glyph glyph-name="circumflex" unicode="&#x2c6;" horiz-adv-x="304" 
d="M329 603h-254v151h254v-151z" />
    <glyph glyph-name="caron" unicode="&#x2c7;" horiz-adv-x="596" 
d="M75 604v150h254v-150h-254z" />
    <glyph glyph-name="breve" unicode="&#x2d8;" horiz-adv-x="596" 
d="M274 624h-254v151h254v-151z" />
    <glyph glyph-name="dotaccent" unicode="&#x2d9;" horiz-adv-x="304" 
d="M274 603h-254v151h254v-151z" />
    <glyph glyph-name="ring" unicode="&#x2da;" horiz-adv-x="596" 
d="M209.5 578q-36.5 37 -36.5 89t36.5 88.5t88.5 36.5t88.5 -36.5t36.5 -88.5t-36.5 -89t-88.5 -37t-88.5 37zM336 627.5q16 16.5 16 39.5t-16 39t-38 16t-38 -16t-16 -39t16 -39.5t38 -16.5t38 16.5z" />
    <glyph glyph-name="ogonek" unicode="&#x2db;" horiz-adv-x="304" 
d="M274 -200h-254v151h254v-151z" />
    <glyph glyph-name="tilde" unicode="&#x2dc;" horiz-adv-x="596" 
d="M274 603h-254v151h254v-151z" />
    <glyph glyph-name="hungarumlaut" unicode="&#x2dd;" horiz-adv-x="558" 
d="M271 602h-254v151h254v-151zM575 602h-254v151h254v-151z" />
    <glyph glyph-name="gravecomb" unicode="&#x300;" horiz-adv-x="0" 
d="M-20 753v-150h-254v150h254z" />
    <glyph glyph-name="acutecomb" unicode="&#x301;" horiz-adv-x="0" 
d="M-20 603h-254v151h254v-151z" />
    <glyph glyph-name="uni0302" unicode="&#x302;" horiz-adv-x="0" 
d="M-20 603h-254v151h254v-151z" />
    <glyph glyph-name="tildecomb" unicode="&#x303;" horiz-adv-x="0" 
d="M-20 603h-254v151h254v-151z" />
    <glyph glyph-name="uni0304" unicode="&#x304;" horiz-adv-x="0" 
d="M-20 603h-254v151h254v-151z" />
    <glyph glyph-name="uni0306" unicode="&#x306;" horiz-adv-x="0" 
d="M-20 603h-254v151h254v-151z" />
    <glyph glyph-name="uni0307" unicode="&#x307;" horiz-adv-x="0" 
d="M-20 603h-254v151h254v-151z" />
    <glyph glyph-name="uni0308" unicode="&#x308;" horiz-adv-x="0" 
d="M-307 602h-254v151h254v-151zM-3 602h-254v151h254v-151z" />
    <glyph glyph-name="uni030A" unicode="&#x30a;" horiz-adv-x="0" 
d="M-20 603h-254v151h254v-151z" />
    <glyph glyph-name="uni030B" unicode="&#x30b;" horiz-adv-x="0" 
d="M-324 602h-254v151h254v-151zM-20 602h-254v151h254v-151z" />
    <glyph glyph-name="uni030C" unicode="&#x30c;" horiz-adv-x="0" 
d="M-20 603h-254v151h254v-151z" />
    <glyph glyph-name="uni0312" unicode="&#x312;" horiz-adv-x="0" 
d="M-20 603h-254v151h254v-151z" />
    <glyph glyph-name="uni0326" unicode="&#x326;" horiz-adv-x="0" 
d="M-75 -200h-254v151h254v-151z" />
    <glyph glyph-name="uni0327" unicode="&#x327;" horiz-adv-x="0" 
d="M-20 -200h-254v151h254v-151z" />
    <glyph glyph-name="uni0328" unicode="&#x328;" horiz-adv-x="0" 
d="M-20 -200h-254v151h254v-151z" />
    <glyph glyph-name="uni0335" unicode="&#x335;" horiz-adv-x="0" 
d="M-20 419v-65h-490v65h490z" />
    <glyph glyph-name="uni0336" unicode="&#x336;" horiz-adv-x="0" 
d="M-20 424v-60h-400v60h400z" />
    <glyph glyph-name="uni0337" unicode="&#x337;" horiz-adv-x="0" 
d="M-20 511l-410 -280l-35 53l408 280z" />
    <glyph glyph-name="uni0338" unicode="&#x338;" horiz-adv-x="0" 
d="M-20 735l-435 -785l-52 32l433 783z" />
    <glyph glyph-name="uni0394" unicode="&#x394;" horiz-adv-x="1080" 
d="M1040 0h-1000l500 700zM335 150h410l-205 284z" />
    <glyph glyph-name="uni03A9" unicode="&#x3a9;" horiz-adv-x="1220" 
d="M889 144l271 6v-150h-452v200q86 15 135 29t78 38t29 64q0 48 -32.5 78.5t-107 45.5t-200.5 15t-200.5 -15t-107 -45.5t-32.5 -78.5q0 -41 30 -66t81.5 -38.5t138.5 -26.5v-200h-460v150l269 -6v30q-140 7 -224.5 51t-84.5 148q0 87 72.5 152t205.5 100t312 35t312 -35
t205.5 -100t72.5 -152q0 -104 -87 -148t-224 -51v-30z" />
    <glyph glyph-name="uni03BC" unicode="&#x3bc;" horiz-adv-x="1063" 
d="M974.5 202q21.5 -12 68.5 -12v-190q-173 0 -249 39t-81 119q-25 -70 -86 -121.5t-164 -51.5q-65 0 -109 19.5t-69 60.5v-265h-240v690h240v-187q0 -90 50 -124t140 -34q83 0 143 31t95 66v248h240v-240q0 -36 21.5 -48z" />
    <glyph glyph-name="pi" unicode="&#x3c0;" horiz-adv-x="1140" 
d="M920 340v-101q0 -44 13.5 -64.5t48 -27.5t108.5 -7v-150q-146 0 -236 23.5t-132 74t-42 131.5v121h-220v-340h-240v340h-170v150h1040v-150h-170z" />
    <glyph glyph-name="Wgrave" unicode="&#x1e80;" horiz-adv-x="1882" 
d="M1862 640l-354 -640h-338l-227 443l-227 -443h-338l-358 640h282l253 -499l237 499h302l237 -499l253 499h278zM1077 893v-150h-254v150h254z" />
    <glyph glyph-name="wgrave" unicode="&#x1e81;" horiz-adv-x="1462" 
d="M1457 490l-319 -490h-226l-184 289l-194 -289h-226l-303 490h264l163 -301l166 301h265l157 -301l172 301h265zM849 753v-150h-254v150h254z" />
    <glyph glyph-name="Wacute" unicode="&#x1e82;" horiz-adv-x="1882" 
d="M1862 640l-354 -640h-338l-227 443l-227 -443h-338l-358 640h282l253 -499l237 499h302l237 -499l253 499h278zM1077 743h-254v151h254v-151z" />
    <glyph glyph-name="wacute" unicode="&#x1e83;" horiz-adv-x="1462" 
d="M1457 490l-319 -490h-226l-184 289l-194 -289h-226l-303 490h264l163 -301l166 301h265l157 -301l172 301h265zM849 603h-254v151h254v-151z" />
    <glyph glyph-name="Wdieresis" unicode="&#x1e84;" horiz-adv-x="1882" 
d="M1862 640l-354 -640h-338l-227 443l-227 -443h-338l-358 640h282l253 -499l237 499h302l237 -499l253 499h278zM686 586h-254v151h254v-151zM1502 587h-254v151h254v-151z" />
    <glyph glyph-name="wdieresis" unicode="&#x1e85;" horiz-adv-x="1462" 
d="M1457 490l-319 -490h-226l-184 289l-194 -289h-226l-303 490h264l163 -301l166 301h265l157 -301l172 301h265zM697 602h-254v151h254v-151zM1001 602h-254v151h254v-151z" />
    <glyph glyph-name="Ygrave" unicode="&#x1ef2;" horiz-adv-x="1070" 
d="M1065 640l-405 -477v-163h-250v163l-405 477h295l236 -297l234 297h295zM662 843v-150h-254v150h254z" />
    <glyph glyph-name="ygrave" unicode="&#x1ef3;" horiz-adv-x="930" 
d="M925 490l-487 -690h-245l150 203l-338 487h255l199 -320l211 320h255zM602 753v-150h-254v150h254z" />
    <glyph glyph-name="endash" unicode="&#x2013;" horiz-adv-x="700" 
d="M620 347v-150h-540v150h540z" />
    <glyph glyph-name="emdash" unicode="&#x2014;" horiz-adv-x="940" 
d="M880 347v-150h-820v150h820z" />
    <glyph glyph-name="quoteleft" unicode="&#x2018;" horiz-adv-x="303" 
d="M264 619q-20 -8 -35.5 -24.5t-18.5 -39.5l68 -11v-153h-253v93q0 86 54.5 135t170.5 62z" />
    <glyph glyph-name="quoteright" unicode="&#x2019;" horiz-adv-x="303" 
d="M39 433q20 8 35.5 24.5t18.5 39.5l-68 11v153h253v-93q0 -86 -54.5 -135t-170.5 -62z" />
    <glyph glyph-name="quotesinglbase" unicode="&#x201a;" horiz-adv-x="303" 
d="M39 -75q20 8 35.5 24.5t18.5 39.5l-68 11v153h253v-93q0 -86 -54.5 -135t-170.5 -62z" />
    <glyph glyph-name="quotedblleft" unicode="&#x201c;" horiz-adv-x="606" 
d="M264 619q-20 -8 -35.5 -24.5t-18.5 -39.5l68 -11v-153h-253v93q0 86 54.5 135t170.5 62zM567 619q-20 -8 -35.5 -24.5t-17.5 -39.5l67 -11v-153h-253v93q0 85 54.5 134.5t171.5 62.5z" />
    <glyph glyph-name="quotedblright" unicode="&#x201d;" horiz-adv-x="606" 
d="M342 432q20 8 35.5 24.5t18.5 39.5l-68 11v153h253v-93q0 -86 -54.5 -135t-170.5 -62zM39 432q20 8 35.5 24.5t18.5 39.5l-68 11v153h253v-93q0 -86 -54.5 -135t-170.5 -62z" />
    <glyph glyph-name="quotedblbase" unicode="&#x201e;" horiz-adv-x="303" 
d="M39 -75q20 8 35.5 24.5t18.5 39.5l-68 11v153h253v-93q0 -86 -54.5 -135t-170.5 -62z" />
    <glyph glyph-name="dagger" unicode="&#x2020;" horiz-adv-x="1130" 
d="M1050 310h-365v-510h-240v510h-365v190h365v200h240v-200h365v-190z" />
    <glyph glyph-name="daggerdbl" unicode="&#x2021;" horiz-adv-x="1030" 
d="M635 310v-120h365v-190h-365v-200h-240v200h-365v190h365v120h-365v190h365v200h240v-200h365v-190h-365z" />
    <glyph glyph-name="bullet" unicode="&#x2022;" horiz-adv-x="478" 
d="M388 411v-298h-298v298h298z" />
    <glyph glyph-name="ellipsis" unicode="&#x2026;" horiz-adv-x="962" 
d="M912 0h-254v151h254v-151zM304 0h-254v151h254v-151zM608 0h-254v151h254v-151z" />
    <glyph glyph-name="perthousand" unicode="&#x2030;" horiz-adv-x="1484" 
d="M872 656l-382 -690l-52 32l380 688zM113 367q-73 41 -73 131q0 91 73 132.5t214 41.5q139 0 211.5 -42t72.5 -132t-72 -131t-212 -41q-141 0 -214 41zM946 346q-73 41 -73 131q0 91 73 132.5t214 41.5q140 0 212 -41.5t72 -132.5q0 -90 -72 -131t-212 -41q-141 0 -214 41
zM416.5 444q30.5 18 30.5 54t-30.5 55t-89.5 19q-60 0 -92 -19t-32 -55q0 -72 124 -72q59 0 89.5 18zM1250 423q31 18 31 54t-30.5 55t-90.5 19q-59 0 -91 -19t-32 -55q0 -72 123 -72q59 0 90 18zM728 -45q-73 41 -73 131q0 91 73 132.5t214 41.5q140 0 212 -41.5t72 -132.5
q0 -90 -72 -131t-212 -41q-141 0 -214 41zM1032 32q31 18 31 54t-31 55t-90 19t-91 -19t-32 -55q0 -72 123 -72q59 0 90 18z" />
    <glyph glyph-name="guilsinglleft" unicode="&#x2039;" horiz-adv-x="491" 
d="M411 118l-111 -99l-240 260l240 261l109 -101l-148 -160z" />
    <glyph glyph-name="guilsinglright" unicode="&#x203a;" horiz-adv-x="491" 
d="M431 279l-241 -260l-110 99l149 161l-148 160l109 101z" />
    <glyph glyph-name="fraction" unicode="&#x2044;" horiz-adv-x="84" 
d="M264 670l-382 -690l-52 32l380 688z" />
    <glyph glyph-name="Euro" unicode="&#x20ac;" horiz-adv-x="1406" 
d="M881 342h-861l61 58h101q65 260 542 260q287 0 429 -49l-175 -172q-72 16 -184 16q-228 0 -312 -55h459zM1346 267q-17 -287 -552 -287q-260 0 -423 61.5t-192 192.5h-159l61 48h758l-60 -48h-314q35 -32 114 -45.5t215 -13.5q244 0 292 92h260z" />
    <glyph glyph-name="trademark" unicode="&#x2122;" horiz-adv-x="1695" 
d="M285 500h-215v140h640v-140h-225v-110h-200v110zM1625 640v-250h-200v103l-120 -108h-200l-120 106v-101h-200v250h200l219 -176l221 176h200zM85 308h1540v-140h-1540v140z" />
    <glyph glyph-name="uni2150" unicode="&#x2150;" horiz-adv-x="1539" 
d="M629 380v-140h-604v140h224v127h-224v135h434v-262h170zM993 670l-382 -690l-52 32l380 688zM1509 401v-153l-219 -248h-250l236 247h-363v154h596z" />
    <glyph glyph-name="uni2151" unicode="&#x2151;" horiz-adv-x="1495" 
d="M629 380v-140h-604v140h224v127h-224v135h434v-262h170zM993 670l-382 -690l-52 32l380 688zM1375 378q85 -37 85 -110q0 -27 -11 -53t-46 -57q-30 -27 -200 -158h-223l201 134q-51 -22 -101 -22q-116 0 -174 34t-58 105q0 81 67.5 122.5t211.5 41.5q163 0 248 -37z
M1271 220.5q39 8.5 39 28.5q0 17 -39.5 25.5t-126.5 8.5q-83 0 -115.5 -8.5t-32.5 -25.5q0 -20 31.5 -28.5t116.5 -8.5q88 0 127 8.5z" />
    <glyph glyph-name="uni2152" unicode="&#x2152;" horiz-adv-x="2287" 
d="M629 380v-140h-604v140h224v127h-224v135h434v-262h170zM993 670l-382 -690l-52 32l380 688zM1512 140v-140h-604v140h224v127h-224v135h434v-262h170zM2105 363.5q82 -55.5 82 -164.5t-82 -164t-243 -55t-243 55t-82 164t82 164.5t243 55.5t243 -55.5zM1953.5 144.5
q29.5 17.5 29.5 54.5q0 36 -29.5 53t-91.5 17q-63 0 -94.5 -17t-31.5 -53q0 -37 31 -54.5t95 -17.5q62 0 91.5 17.5z" />
    <glyph glyph-name="uni2153" unicode="&#x2153;" horiz-adv-x="1496" 
d="M629 380v-140h-604v140h224v127h-224v135h434v-262h170zM993 670l-382 -690l-52 32l380 688zM1378.5 183.5q37.5 -5.5 60 -23t22.5 -54.5q0 -65 -77.5 -95.5t-227.5 -30.5q-152 0 -230 40.5t-78 125.5h143q1 -19 40.5 -26t121.5 -7q65 0 96.5 2t45.5 8t14 20q0 13 -15 19
t-46.5 7.5t-94.5 1.5h-136v40h136q87 0 117.5 7t30.5 24q0 15 -30 21t-118 6q-73 0 -116 -8t-45 -20h-142q0 89 83.5 132t215.5 43q301 0 301 -124q0 -45 -47 -70t-129 -31q67 -2 104.5 -7.5z" />
    <glyph glyph-name="uni2154" unicode="&#x2154;" horiz-adv-x="1522" 
d="M64 369q177 24 265 40.5t118 30t30 31.5t-27 26t-95 8q-64 0 -98 -11.5t-43 -29.5h-174q0 53 33.5 96.5t105 69.5t180.5 26q134 0 210 -31.5t76 -104.5q0 -44 -25 -70t-73.5 -40.5t-130.5 -24.5l-136 -16l354 10v-139h-570v129zM1019 670l-382 -690l-52 32l380 688z
M1404.5 183.5q37.5 -5.5 60 -23t22.5 -54.5q0 -65 -77.5 -95.5t-227.5 -30.5q-152 0 -230 40.5t-78 125.5h143q1 -19 40.5 -26t121.5 -7q65 0 96.5 2t45.5 8t14 20q0 13 -15 19t-46.5 7.5t-94.5 1.5h-136v40h136q87 0 117.5 7t30.5 24q0 15 -30 21t-118 6q-73 0 -116 -8
t-45 -20h-142q0 89 83.5 132t215.5 43q301 0 301 -124q0 -45 -47 -70t-129 -31q67 -2 104.5 -7.5z" />
    <glyph glyph-name="uni2155" unicode="&#x2155;" horiz-adv-x="1488" 
d="M629 380v-140h-604v140h224v127h-224v135h434v-262h170zM993 670l-382 -690l-52 32l380 688zM1384 207q54 -29 54 -92q0 -72 -66.5 -103.5t-214.5 -31.5q-133 0 -211 38.5t-78 108.5h146q2 -12 42 -19t111 -7q64 0 90.5 6t26.5 25q0 18 -24.5 22.5t-92.5 4.5l-155 -1
l-119 34l14 210h484v-129h-365l-7 -79q40 23 93 32.5t126 9.5q92 0 146 -29z" />
    <glyph glyph-name="uni2156" unicode="&#x2156;" horiz-adv-x="1514" 
d="M64 369q177 24 265 40.5t118 30t30 31.5t-27 26t-95 8q-64 0 -98 -11.5t-43 -29.5h-174q0 53 33.5 96.5t105 69.5t180.5 26q134 0 210 -31.5t76 -104.5q0 -44 -25 -70t-73.5 -40.5t-130.5 -24.5l-136 -16l354 10v-139h-570v129zM1019 670l-382 -690l-52 32l380 688z
M1410 207q54 -29 54 -92q0 -72 -66.5 -103.5t-214.5 -31.5q-133 0 -211 38.5t-78 108.5h146q2 -12 42 -19t111 -7q64 0 90.5 6t26.5 25q0 18 -24.5 22.5t-92.5 4.5l-155 -1l-119 34l14 210h484v-129h-365l-7 -79q40 23 93 32.5t126 9.5q92 0 146 -29z" />
    <glyph glyph-name="uni2157" unicode="&#x2157;" horiz-adv-x="1482" 
d="M565.5 423.5q37.5 -5.5 60 -23t22.5 -54.5q0 -65 -77.5 -95.5t-227.5 -30.5q-152 0 -230 40.5t-78 125.5h143q1 -19 40.5 -26t121.5 -7q65 0 96.5 2t45.5 8t14 20q0 13 -15 19t-46.5 7.5t-94.5 1.5h-136v40h136q87 0 117.5 7t30.5 24q0 15 -30 21t-118 6q-73 0 -116 -8
t-45 -20h-142q0 89 83.5 132t215.5 43q301 0 301 -124q0 -45 -47 -70t-129 -31q67 -2 104.5 -7.5zM987 670l-382 -690l-52 32l380 688zM1378 207q54 -29 54 -92q0 -72 -66.5 -103.5t-214.5 -31.5q-133 0 -211 38.5t-78 108.5h146q2 -12 42 -19t111 -7q64 0 90.5 6t26.5 25
q0 18 -24.5 22.5t-92.5 4.5l-155 -1l-119 34l14 210h484v-129h-365l-7 -79q40 23 93 32.5t126 9.5q92 0 146 -29z" />
    <glyph glyph-name="uni2158" unicode="&#x2158;" horiz-adv-x="1492" 
d="M643 303h-79v-63h-187v63h-327v132l339 206h175v-228h79v-110zM387 522l-153 -122h153v122zM997 670l-382 -690l-52 32l380 688zM1388 207q54 -29 54 -92q0 -72 -66.5 -103.5t-214.5 -31.5q-133 0 -211 38.5t-78 108.5h146q2 -12 42 -19t111 -7q64 0 90.5 6t26.5 25
q0 18 -24.5 22.5t-92.5 4.5l-155 -1l-119 34l14 210h484v-129h-365l-7 -79q40 23 93 32.5t126 9.5q92 0 146 -29z" />
    <glyph glyph-name="uni2159" unicode="&#x2159;" horiz-adv-x="1435" 
d="M629 380v-140h-604v140h224v127h-224v135h434v-262h170zM993 670l-382 -690l-52 32l380 688zM1342 249q58 -34 58 -105q0 -81 -67.5 -122.5t-211.5 -41.5q-163 0 -248 37.5t-85 109.5q0 27 11 53t46 57q30 27 200 164h223l-207 -142q55 24 107 24q116 0 174 -34z
M1219.5 120.5q32.5 8.5 32.5 26.5q0 19 -32 27.5t-116 8.5q-88 0 -127 -8.5t-39 -27.5q0 -18 39 -26.5t127 -8.5q83 0 115.5 8.5z" />
    <glyph glyph-name="uni215A" unicode="&#x215a;" horiz-adv-x="1381" 
d="M571 447q54 -29 54 -92q0 -72 -66.5 -103.5t-214.5 -31.5q-133 0 -211 38.5t-78 108.5h146q2 -12 42 -19t111 -7q64 0 90.5 6t26.5 25q0 18 -24.5 22.5t-92.5 4.5l-155 -1l-119 34l14 210h484v-129h-365l-7 -79q40 23 93 32.5t126 9.5q92 0 146 -29zM939 670l-382 -690
l-52 32l380 688zM1288 249q58 -34 58 -105q0 -81 -67.5 -122.5t-211.5 -41.5q-163 0 -248 37.5t-85 109.5q0 27 11 53t46 57q30 27 200 164h223l-207 -142q55 24 107 24q116 0 174 -34zM1165.5 120.5q32.5 8.5 32.5 26.5q0 19 -32 27.5t-116 8.5q-88 0 -127 -8.5t-39 -27.5
q0 -18 39 -26.5t127 -8.5q83 0 115.5 8.5z" />
    <glyph glyph-name="oneeighth" unicode="&#x215b;" horiz-adv-x="1481" 
d="M629 380v-140h-604v140h224v127h-224v135h434v-262h170zM993 670l-382 -690l-52 32l380 688zM1403 175.5q43 -24.5 43 -71.5q0 -59 -70 -90.5t-229 -31.5t-229 31.5t-70 90.5q0 47 41.5 71t101.5 27q-55 7 -90.5 31t-35.5 68q0 61 66 88t216 27t216 -27t66 -88
q0 -44 -37 -68t-98 -31q66 -2 109 -26.5zM1055.5 283q-31.5 -3 -42 -8.5t-10.5 -15.5q0 -15 29 -23t115 -8q87 0 118.5 8t31.5 23q0 14 -30.5 20.5t-119.5 6.5q-60 0 -91.5 -3zM1281 120q35 7 35 22q0 16 -34.5 22.5t-134.5 6.5q-68 0 -103 -3t-47.5 -9t-12.5 -17
q0 -10 12.5 -16.5t47.5 -9.5t103 -3q99 0 134 7z" />
    <glyph glyph-name="threeeighths" unicode="&#x215c;" horiz-adv-x="1475" 
d="M565.5 423.5q37.5 -5.5 60 -23t22.5 -54.5q0 -65 -77.5 -95.5t-227.5 -30.5q-152 0 -230 40.5t-78 125.5h143q1 -19 40.5 -26t121.5 -7q65 0 96.5 2t45.5 8t14 20q0 13 -15 19t-46.5 7.5t-94.5 1.5h-136v40h136q87 0 117.5 7t30.5 24q0 15 -30 21t-118 6q-73 0 -116 -8
t-45 -20h-142q0 89 83.5 132t215.5 43q301 0 301 -124q0 -45 -47 -70t-129 -31q67 -2 104.5 -7.5zM987 670l-382 -690l-52 32l380 688zM1397 175.5q43 -24.5 43 -71.5q0 -59 -70 -90.5t-229 -31.5t-229 31.5t-70 90.5q0 47 41.5 71t101.5 27q-55 7 -90.5 31t-35.5 68
q0 61 66 88t216 27t216 -27t66 -88q0 -44 -37 -68t-98 -31q66 -2 109 -26.5zM1049.5 283q-31.5 -3 -42 -8.5t-10.5 -15.5q0 -15 29 -23t115 -8q87 0 118.5 8t31.5 23q0 14 -30.5 20.5t-119.5 6.5q-60 0 -91.5 -3zM1275 120q35 7 35 22q0 16 -34.5 22.5t-134.5 6.5
q-68 0 -103 -3t-47.5 -9t-12.5 -17q0 -10 12.5 -16.5t47.5 -9.5t103 -3q99 0 134 7z" />
    <glyph glyph-name="fiveeighths" unicode="&#x215d;" horiz-adv-x="1427" 
d="M571 447q54 -29 54 -92q0 -72 -66.5 -103.5t-214.5 -31.5q-133 0 -211 38.5t-78 108.5h146q2 -12 42 -19t111 -7q64 0 90.5 6t26.5 25q0 18 -24.5 22.5t-92.5 4.5l-155 -1l-119 34l14 210h484v-129h-365l-7 -79q40 23 93 32.5t126 9.5q92 0 146 -29zM939 670l-382 -690
l-52 32l380 688zM1349 175.5q43 -24.5 43 -71.5q0 -59 -70 -90.5t-229 -31.5t-229 31.5t-70 90.5q0 47 41.5 71t101.5 27q-55 7 -90.5 31t-35.5 68q0 61 66 88t216 27t216 -27t66 -88q0 -44 -37 -68t-98 -31q66 -2 109 -26.5zM1001.5 283q-31.5 -3 -42 -8.5t-10.5 -15.5
q0 -15 29 -23t115 -8q87 0 118.5 8t31.5 23q0 14 -30.5 20.5t-119.5 6.5q-60 0 -91.5 -3zM1227 120q35 7 35 22q0 16 -34.5 22.5t-134.5 6.5q-68 0 -103 -3t-47.5 -9t-12.5 -17q0 -10 12.5 -16.5t47.5 -9.5t103 -3q99 0 134 7z" />
    <glyph glyph-name="seveneighths" unicode="&#x215e;" horiz-adv-x="1377" 
d="M626 641v-153l-219 -248h-250l236 247h-363v154h596zM890 670l-382 -690l-52 32l380 688zM1300 175.5q43 -24.5 43 -71.5q0 -59 -70 -90.5t-229 -31.5t-229 31.5t-70 90.5q0 47 41.5 71t101.5 27q-55 7 -90.5 31t-35.5 68q0 61 66 88t216 27t216 -27t66 -88
q0 -44 -37 -68t-98 -31q66 -2 109 -26.5zM952.5 283q-31.5 -3 -42 -8.5t-10.5 -15.5q0 -15 29 -23t115 -8q87 0 118.5 8t31.5 23q0 14 -30.5 20.5t-119.5 6.5q-60 0 -91.5 -3zM1178 120q35 7 35 22q0 16 -34.5 22.5t-134.5 6.5q-68 0 -103 -3t-47.5 -9t-12.5 -17
q0 -10 12.5 -16.5t47.5 -9.5t103 -3q99 0 134 7z" />
    <glyph glyph-name="uni2189" unicode="&#x2189;" horiz-adv-x="1487" 
d="M603 603.5q82 -55.5 82 -164.5t-82 -164t-243 -55t-243 55t-82 164t82 164.5t243 55.5t243 -55.5zM451.5 384.5q29.5 17.5 29.5 54.5q0 36 -29.5 53t-91.5 17q-63 0 -94.5 -17t-31.5 -53q0 -37 31 -54.5t95 -17.5q62 0 91.5 17.5zM984 670l-382 -690l-52 32l380 688z
M1369.5 183.5q37.5 -5.5 60 -23t22.5 -54.5q0 -65 -77.5 -95.5t-227.5 -30.5q-152 0 -230 40.5t-78 125.5h143q1 -19 40.5 -26t121.5 -7q65 0 96.5 2t45.5 8t14 20q0 13 -15 19t-46.5 7.5t-94.5 1.5h-136v40h136q87 0 117.5 7t30.5 24q0 15 -30 21t-118 6q-73 0 -116 -8
t-45 -20h-142q0 89 83.5 132t215.5 43q301 0 301 -124q0 -45 -47 -70t-129 -31q67 -2 104.5 -7.5z" />
    <glyph glyph-name="arrowleft" unicode="&#x2190;" horiz-adv-x="941" 
d="M901 354v-150h-489l-86 5l85 -91l-111 -99l-240 260l240 261l109 -101l-84 -90l87 5h489z" />
    <glyph glyph-name="arrowup" unicode="&#x2191;" horiz-adv-x="761" 
d="M542 409l-92 84l6 -86v-488h-150v488l5 87l-91 -84l-100 109l260 240l261 -240z" />
    <glyph glyph-name="arrowright" unicode="&#x2192;" horiz-adv-x="941" 
d="M881 279l-241 -260l-110 99l85 91l-87 -5h-488v150h488l87 -5l-84 90l109 101z" />
    <glyph glyph-name="arrowdown" unicode="&#x2193;" horiz-adv-x="761" 
d="M641 108l-261 -241l-260 241l99 110l92 -85l-6 87v488h150v-488l-5 -87l91 84z" />
    <glyph glyph-name="arrowboth" unicode="&#x2194;" horiz-adv-x="1208" 
d="M1148 279l-240 -260l-110 99l83 90l-37 -4h-480l-37 3l84 -89l-111 -99l-240 260l240 261l109 -101l-82 -88l37 3h480l37 -4l-82 89l109 101z" />
    <glyph glyph-name="arrowupdn" unicode="&#x2195;" horiz-adv-x="761" 
d="M541 174l100 -109l-261 -240l-260 240l99 111l90 -84l-4 37v380l4 37l-90 -84l-99 111l260 240l261 -240l-100 -109l-89 82l3 -37v-380l-3 -37z" />
    <glyph glyph-name="uni2196" unicode="&#x2196;" horiz-adv-x="861" 
d="M761 95l-106 -106l-345 345l-57 65l-5 -125l-148 8l14 354l354 14l6 -147l-123 -5l65 -58z" />
    <glyph glyph-name="uni2197" unicode="&#x2197;" horiz-adv-x="861" 
d="M614 269l-5 125l-58 -65l-345 -346l-106 106l345 346l66 57l-124 5l6 148l354 -14l14 -354z" />
    <glyph glyph-name="uni2198" unicode="&#x2198;" horiz-adv-x="862" 
d="M762 353l-14 -354l-355 -14l-8 148l125 5l-65 57l-345 345l106 106l345 -345l58 -65l5 123z" />
    <glyph glyph-name="uni2199" unicode="&#x2199;" horiz-adv-x="862" 
d="M351 138l125 -5l-8 -148l-354 14l-14 354l148 6l5 -123l57 65l346 345l106 -106l-346 -345z" />
    <glyph glyph-name="partialdiff" unicode="&#x2202;" horiz-adv-x="1029" 
d="M684.5 634.5q159.5 -70.5 222 -166.5t62.5 -185q0 -164 -134 -231t-337 -67q-147 0 -251 30.5t-158 89t-54 140.5q0 121 96.5 175.5t256.5 54.5q129 0 228.5 -33t146.5 -92q-33 101 -151 151.5t-356 50.5v153q269 0 428.5 -70.5zM779 238v2q-1 47 -86 67t-185 20
q-224 0 -224 -93q0 -54 58.5 -75t175.5 -21q260 0 261 100z" />
    <glyph glyph-name="emptyset" unicode="&#x2205;" horiz-adv-x="1066" 
d="M935 473q71 -61 71 -169q0 -137 -115 -198t-356 -61q-59 0 -110 3l-67 -116l-61 35l52 89q-146 20 -217.5 80t-71.5 168q0 137 116.5 199t358.5 62q57 0 106 -3l64 111l60 -35l-48 -84q147 -20 218 -81zM433 202l123 213h-21q-112 0 -171 -28.5t-59 -82.5q0 -81 128 -102
zM703.5 222.5q57.5 27.5 57.5 81.5q0 40 -32.5 66.5t-95.5 37.5l-123 -213h25q111 0 168.5 27.5z" />
    <glyph glyph-name="product" unicode="&#x220f;" horiz-adv-x="1180" 
d="M1150 450h-200v-450h-240v450h-240v-450h-240v450h-200v190h1120v-190z" />
    <glyph glyph-name="summation" unicode="&#x2211;" horiz-adv-x="1014" 
d="M924 450h-470l264 -143l-238 -117h444v-190h-840v190l262 122l-262 138v190h840v-190z" />
    <glyph glyph-name="minus" unicode="&#x2212;" horiz-adv-x="600" 
d="M550 345v-150h-500v150h500z" />
    <glyph glyph-name="radical" unicode="&#x221a;" horiz-adv-x="1196" 
d="M1176 450h-305l-307 -450h-226l-333 490h264l187 -310l300 460v0v0h420v-190z" />
    <glyph glyph-name="infinity" unicode="&#x221e;" horiz-adv-x="1620" 
d="M1398.5 478q75.5 -27 118.5 -77.5t43 -116.5q0 -67 -43.5 -117t-123.5 -77t-185 -27q-94 0 -163.5 20t-116 49.5t-107.5 78.5q-63 -47 -115.5 -77.5t-126 -50.5t-167.5 -20q-105 0 -185 27.5t-123.5 77.5t-43.5 117q0 66 42.5 116t118 77t171.5 27q105 0 183.5 -22
t131.5 -54t117 -82q64 54 110 84t118.5 52t175.5 22q95 0 170.5 -27zM618 228.5q62 17.5 113 49.5q-57 37 -123 57t-156 20q-58 0 -100 -15t-42 -55q0 -42 50 -58t112 -16q84 0 146 17.5zM1260 227q50 16 50 57q0 40 -42 55.5t-100 15.5q-76 0 -135 -20t-117 -56
q51 -33 106 -50.5t126 -17.5q62 0 112 16z" />
    <glyph glyph-name="integral" unicode="&#x222b;" horiz-adv-x="751" 
d="M721 760v-190h-135q-42 0 -66 -20t-24 -70v-420q0 -86 -50 -128t-130 -42h-286v190h136q42 0 66 20t24 70v420q0 86 45.5 128t124.5 42h295z" />
    <glyph glyph-name="approxequal" unicode="&#x2248;" horiz-adv-x="894" 
d="M844 478q0 -53 -24.5 -99t-75.5 -74.5t-125 -28.5q-47 0 -88 10.5t-96 31.5q-45 17 -76.5 25.5t-63.5 8.5q-37 0 -61 -16t-24 -36h-160q0 51 27.5 97.5t83 75.5t134.5 29q46 0 88 -11t96 -31q45 -17 76.5 -25.5t63.5 -8.5q35 0 50 15t15 37h160zM844 231q0 -48 -25 -94.5
t-76 -77t-124 -30.5q-47 0 -88 10.5t-96 31.5q-45 17 -76.5 25.5t-63.5 8.5q-37 0 -61 -16t-24 -36h-160q0 52 27.5 98t83 75t134.5 29q46 0 88 -11t96 -31q45 -17 76.5 -25.5t63.5 -8.5q37 0 61 16t24 36h140z" />
    <glyph glyph-name="notequal" unicode="&#x2260;" horiz-adv-x="840" 
d="M470 330l-32 -105h352v-150h-398l-32 -104l-64 18l26 86h-272v150h318l33 105h-351v150h397l33 109l64 -18l-28 -91h274v-150h-320z" />
    <glyph glyph-name="lessequal" unicode="&#x2264;" horiz-adv-x="552" 
d="M225 319l247 -65l-50 -149l-362 136v151l362 136l50 -138zM62 55h390v-65h-390v65z" />
    <glyph glyph-name="greaterequal" unicode="&#x2265;" horiz-adv-x="552" 
d="M492 392v-151l-362 -136l-50 149l247 65l-247 71l50 138zM100 55h390v-65h-390v65z" />
    <glyph glyph-name="lozenge" unicode="&#x25ca;" horiz-adv-x="1001" 
d="M951 337l-450 -343l-451 343l450 343zM284 337l217 -163l216 163l-217 163z" />
    <glyph glyph-name="uniF8FF" unicode="&#xf8ff;" horiz-adv-x="860" 
d="M635 618.5q91 -41.5 143 -117.5t52 -176t-52 -176t-143 -117.5t-205 -41.5t-205 41.5t-143 117.5t-52 176t52 176t143 117.5t205 41.5t205 -41.5zM328 564.5q-34 -32.5 -54 -82.5q51 -8 134 -10v132q-46 -7 -80 -39.5zM453 472q81 2 133 10q-21 51 -54.5 83.5t-78.5 38.5
v-132zM321 596q-93 -22 -153 -80q27 -17 67 -27q32 71 86 107zM624 490q38 10 66 27q-59 58 -151 79q53 -36 85 -106zM714 492q-33 -25 -75 -39q17 -52 20 -108h109q-4 83 -54 147zM92 345h109q3 55 20 107q-46 15 -76 38q-49 -61 -53 -145zM615 345q-3 54 -16 98
q-60 -13 -146 -15v-83h162zM260 442q-12 -46 -15 -97h163v83q-91 2 -148 14zM142 164q30 25 78 40q-16 53 -19 101h-109q4 -81 50 -141zM245 305q3 -46 15 -91q62 14 148 15v76h-163zM600 214q12 43 15 91h-162v-76q86 -1 147 -15zM768 305h-109q-3 -49 -20 -102
q45 -14 78 -41q47 63 51 143zM273 175q21 -53 55 -87.5t80 -41.5v139q-84 -2 -135 -10zM531.5 87q33.5 34 55.5 87q-59 10 -134 11v-139q45 7 78.5 41zM324 53q-55 38 -90 114q-40 -10 -70 -29q60 -61 160 -85zM695 137q-26 16 -70 29q-33 -76 -89 -113q96 21 159 84z" />
    <glyph glyph-name="i.loclTRK" horiz-adv-x="350" 
d="M295 490v-490h-240v490h240zM302 598h-254v151h254v-151z" />
    <glyph glyph-name="T_h" horiz-adv-x="1983" 
d="M1850.5 472.5q87.5 -52.5 87.5 -170.5v-302h-240v202q0 47 -18.5 77t-64.5 45.5t-127 15.5q-69 0 -125 -15.5t-93 -32.5v-292h-240v445h-355v-445h-250v445h-395v195h1240v-280q22 35 68 72.5t120 65t172 27.5q133 0 220.5 -52.5z" />
    <glyph glyph-name="t_i" horiz-adv-x="933" 
d="M878 747v-150h-254v150h254zM871 0h-240v340h-197v-340h-240v340h-174v150h174v150h240v-150h437v-490z" />
    <glyph glyph-name="t_y" horiz-adv-x="1409" 
d="M1404 490l-487 -690h-245l150 203l-234 337h-154v-340h-240v340h-174v150h174v150h240v-150h305l199 -320l211 320h255z" />
    <glyph glyph-name="zero.lf" horiz-adv-x="1170" 
d="M980 574.5q130 -85.5 130 -254.5t-130 -254.5t-395 -85.5t-395 85.5t-130 254.5t130 254.5t395 85.5t395 -85.5zM768.5 195.5q71.5 35.5 71.5 124.5q0 86 -72 120.5t-183 34.5q-113 0 -189 -35t-76 -120q0 -89 76 -124.5t189 -35.5q112 0 183.5 35.5z" />
    <glyph glyph-name="one.lf" horiz-adv-x="529" 
d="M459 640v-640h-240v460h-194v180h434z" />
    <glyph glyph-name="two.lf" horiz-adv-x="1028" 
d="M314 190h673v-190h-910v190v0v0v0h1q312 73 452 114t172.5 62t32.5 49t-46 42t-170 14q-113 0 -168.5 -16.5t-60.5 -51.5h-250q0 75 52.5 133t157.5 91t258 33q150 0 253.5 -17.5t165 -66.5t61.5 -138q0 -73 -59 -115t-151.5 -62.5t-259.5 -42.5z" />
    <glyph glyph-name="three.lf" 
d="M872.5 310.5q69.5 -12.5 108.5 -44t39 -88.5q0 -98 -131.5 -148t-367.5 -50q-235 0 -360.5 63t-125.5 185h251q4 -58 235 -58q90 0 137.5 3.5t72 16t24.5 38.5q0 24 -30 35.5t-87 15.5t-158 4h-149v70h149q100 0 156 5.5t80 18.5t24 36q0 32 -50 44.5t-164 12.5
q-108 0 -171.5 -17.5t-67.5 -49.5h-249q0 86 64.5 144t175 85.5t248.5 27.5q231 0 352.5 -44t121.5 -132q0 -78 -78 -113.5t-226 -45.5q107 -2 176.5 -14.5z" />
    <glyph glyph-name="four.lf" horiz-adv-x="1094" 
d="M1064 110h-164v-110h-240v110h-610v150l610 380h240v-380h164v-150zM660 260v168l-261 -168h261z" />
    <glyph glyph-name="five.lf" horiz-adv-x="1010" 
d="M872.5 344q87.5 -42 87.5 -143q0 -112 -109.5 -166.5t-329.5 -54.5q-128 0 -235.5 26.5t-171.5 75.5t-64 115h220q4 -21 73.5 -34t160.5 -13q104 0 160 9.5t56 44.5q0 36 -57 46t-159 10q-64 0 -135 -7t-102 -14l-198 35l50 376h759v-190h-543l-20 -147q56 31 145.5 52
t184.5 21q140 0 227.5 -42z" />
    <glyph glyph-name="six.lf" horiz-adv-x="1133" 
d="M914 411.5q91 -28.5 137.5 -79.5t46.5 -118q0 -69 -52.5 -121.5t-161.5 -82.5t-274 -30q-580 0 -580 222q0 67 62 123q24 23 384 325h338l-357 -252q104 42 235 42t222 -28.5zM782.5 167.5q65.5 16.5 65.5 51.5q0 33 -67.5 52t-192.5 19q-142 0 -225 -19t-83 -52
q0 -68 308 -68q129 0 194.5 16.5z" />
    <glyph glyph-name="seven.lf" horiz-adv-x="1063" 
d="M1033 640v-190l-505 -450h-327l512 450h-693v190h1013z" />
    <glyph glyph-name="eight.lf" horiz-adv-x="1081" 
d="M902 321q74 -17 109 -51.5t35 -91.5q0 -91 -121.5 -144.5t-384.5 -53.5t-384 53.5t-121 144.5q0 57 35 91.5t109 51.5t199 22q-115 6 -183 21.5t-99.5 44.5t-31.5 75q0 86 112 131t364 45q253 0 365 -45t112 -131q0 -46 -31.5 -75t-99.5 -44.5t-183 -21.5q125 -5 199 -22
zM365 392.5q46 -13.5 175 -13.5q131 0 181.5 14t50.5 39q0 16 -19.5 26t-70 15t-142.5 5q-91 0 -139 -5t-65 -15t-17 -26q0 -26 46 -39.5zM699.5 174.5q56.5 5.5 79 16.5t22.5 29t-22.5 28.5t-79 16t-159.5 5.5q-102 0 -156 -5.5t-74 -16t-20 -28.5q0 -19 20 -29.5t74 -16
t156 -5.5q103 0 159.5 5.5z" />
    <glyph glyph-name="nine.lf" horiz-adv-x="1153" 
d="M987 613q136 -52 136 -165q0 -33 -18 -67t-59 -71q-19 -18 -370 -310h-337l367 259q-118 -49 -265 -49q-131 0 -222.5 28.5t-137.5 79.5t-46 118q0 111 126.5 170t402.5 59q287 0 423 -52zM353.5 377q68.5 -17 210.5 -17q146 0 227.5 17.5t81.5 53.5q0 38 -78.5 53.5
t-230.5 15.5q-147 0 -213 -15t-66 -54q0 -37 68.5 -54z" />
    <glyph glyph-name="zero.osf" horiz-adv-x="1016" 
d="M151 46q-116 61 -116 198t116.5 199t358.5 62q240 0 355.5 -62t115.5 -199t-115 -198t-356 -61q-243 0 -359 61zM678.5 162.5q57.5 27.5 57.5 81.5t-57.5 82.5t-168.5 28.5q-112 0 -171 -28.5t-59 -82.5t58.5 -81.5t171.5 -27.5q111 0 168.5 27.5z" />
    <glyph glyph-name="one.osf" horiz-adv-x="529" 
d="M459 490v-490h-240v300h-194v190h434z" />
    <glyph glyph-name="two.osf" horiz-adv-x="1028" 
d="M410 136l567 19v-155h-890v125v0v0v0h1q258 46 380 70t189.5 48t67.5 51q0 15 -17.5 24t-62 13.5t-126.5 4.5q-107 0 -161 -17t-58 -51h-250q0 113 116.5 175t341.5 62q218 0 344 -38t126 -134q0 -58 -56 -92t-146 -52t-258 -39z" />
    <glyph glyph-name="three.osf" 
d="M872.5 159.5q69.5 -12.5 108.5 -44t39 -88.5q0 -98 -131.5 -148t-367.5 -50q-235 0 -360.5 63.5t-125.5 184.5h251q4 -58 235 -58q88 0 136.5 4t73 16.5t24.5 37.5q0 24 -30 36t-87 16t-158 4h-149v70h149q100 0 156 5.5t80 18.5t24 36q0 31 -50.5 44t-163.5 13
q-108 0 -171.5 -17.5t-67.5 -50.5h-249q0 86 64.5 144t175 86t248.5 28q230 0 352 -44.5t122 -132.5q0 -77 -78 -112.5t-226 -45.5q107 -3 176.5 -15.5z" />
    <glyph glyph-name="four.osf" horiz-adv-x="1094" 
d="M1064 -35h-164v-110h-240v110h-610v150l610 380h240v-380h164v-150zM660 115v167l-261 -167h261z" />
    <glyph glyph-name="five.osf" horiz-adv-x="1015" 
d="M877.5 194q87.5 -42 87.5 -143q0 -112 -109.5 -166.5t-329.5 -54.5q-128 0 -235.5 26.5t-171.5 75.5t-64 115h220q4 -21 73.5 -34t160.5 -13q104 0 160 9.5t56 44.5q0 36 -57 46t-159 10q-64 0 -135 -7t-102 -14l-198 35l50 376h759v-190h-543l-20 -147q56 31 145.5 52
t184.5 21q140 0 227.5 -42z" />
    <glyph glyph-name="six.osf" horiz-adv-x="1133" 
d="M914 411.5q91 -28.5 137.5 -79.5t46.5 -118q0 -69 -52.5 -121.5t-161.5 -82.5t-274 -30q-580 0 -580 222q0 67 62 123q24 23 384 315h338l-342 -236q96 36 220 36q131 0 222 -28.5zM782.5 167.5q65.5 16.5 65.5 51.5q0 33 -67.5 52t-192.5 19q-142 0 -225 -19t-83 -52
q0 -68 308 -68q129 0 194.5 16.5z" />
    <glyph glyph-name="seven.osf" horiz-adv-x="1153" 
d="M1073 490v-190l-505 -450h-327l512 450h-693v190h1013z" />
    <glyph glyph-name="eight.osf" horiz-adv-x="1081" 
d="M902 321q74 -17 109 -51.5t35 -91.5q0 -91 -121.5 -144.5t-384.5 -53.5t-384 53.5t-121 144.5q0 57 35 91.5t109 51.5t199 22q-115 6 -183 21.5t-99.5 44.5t-31.5 75q0 86 112 131t364 45q253 0 365 -45t112 -131q0 -46 -31.5 -75t-99.5 -44.5t-183 -21.5q125 -5 199 -22
zM365 392.5q46 -13.5 175 -13.5q131 0 181.5 14t50.5 39q0 16 -19.5 26t-70 15t-142.5 5q-91 0 -139 -5t-65 -15t-17 -26q0 -26 46 -39.5zM699.5 174.5q56.5 5.5 79 16.5t22.5 29t-22.5 28.5t-79 16t-159.5 5.5q-102 0 -156 -5.5t-74 -16t-20 -28.5q0 -19 20 -29.5t74 -16
t156 -5.5q103 0 159.5 5.5z" />
    <glyph glyph-name="nine.osf" horiz-adv-x="1158" 
d="M987 463q136 -52 136 -165q0 -33 -18 -67t-59 -71q-19 -18 -370 -310h-337l367 259q-118 -49 -265 -49q-131 0 -222.5 28.5t-137.5 79.5t-46 118q0 111 126.5 170t402.5 59q287 0 423 -52zM353.5 227q68.5 -17 210.5 -17q146 0 227.5 17.5t81.5 53.5q0 38 -78.5 53.5
t-230.5 15.5q-147 0 -213 -15t-66 -54q0 -37 68.5 -54z" />
    <glyph glyph-name="zero.tf" 
d="M897 574q125 -86 125 -254t-125 -254t-370 -86t-370 86t-125 254t125 254t370 86t370 -86zM690 195.5q62 35.5 62 124.5q0 155 -225 155q-102 0 -168.5 -34.5t-66.5 -120.5q0 -89 66 -124.5t169 -35.5q101 0 163 35.5z" />
    <glyph glyph-name="one.tf" 
d="M950 190v-190h-844v190h314v270h-234v180h474v-450h290z" />
    <glyph glyph-name="two.tf" 
d="M328 190h673v-190h-910v190v0v0v0h1q312 73 452 114t172.5 62t32.5 49t-46 42t-170 14q-113 0 -168.5 -16.5t-60.5 -51.5h-250q0 75 52.5 133t157.5 91t258 33q150 0 253.5 -17.5t165 -66.5t61.5 -138q0 -73 -59 -115t-151.5 -62.5t-259.5 -42.5z" />
    <glyph glyph-name="three.tf" 
d="M872.5 310.5q69.5 -12.5 108.5 -44t39 -88.5q0 -98 -131.5 -148t-367.5 -50q-235 0 -360.5 63t-125.5 185h251q4 -58 235 -58q90 0 137.5 3.5t72 16t24.5 38.5q0 24 -30 35.5t-87 15.5t-158 4h-149v70h149q100 0 156 5.5t80 18.5t24 36q0 32 -50 44.5t-164 12.5
q-108 0 -171.5 -17.5t-67.5 -49.5h-249q0 86 64.5 144t175 85.5t248.5 27.5q231 0 352.5 -44t121.5 -132q0 -78 -78 -113.5t-226 -45.5q107 -2 176.5 -14.5z" />
    <glyph glyph-name="four.tf" 
d="M1034 110h-164v-110h-240v110h-610v150l610 380h240v-380h164v-150zM630 260v168l-261 -168h261z" />
    <glyph glyph-name="five.tf" 
d="M993 201q0 -112 -111 -166.5t-338 -54.5q-133 0 -242.5 26t-174 75.5t-64.5 115.5h220q4 -21 75 -34t169 -13q106 0 166 9.5t60 44.5q0 36 -61 46t-165 10q-70 0 -142.5 -6.5t-104.5 -14.5l-198 35l50 376h779v-190h-563l-20 -148q57 31 151 52.5t189 21.5
q325 0 325 -185z" />
    <glyph glyph-name="six.tf" 
d="M852 411.5q85 -28.5 129.5 -80t44.5 -117.5q0 -68 -50.5 -121t-153.5 -83t-254 -30q-259 0 -399 55.5t-140 166.5q0 67 61 123l345 315h337l-309 -228q82 28 187 28q117 0 202 -28.5zM719 166.5q57 15.5 57 52.5q0 35 -59 53t-171 18q-122 0 -194.5 -18.5t-72.5 -52.5
q0 -68 267 -68q116 0 173 15.5z" />
    <glyph glyph-name="seven.tf" 
d="M1034 640v-190l-505 -450h-327l512 450h-693v190h1013z" />
    <glyph glyph-name="eight.tf" 
d="M889 321q74 -17 109 -51.5t35 -91.5q0 -91 -121.5 -144.5t-384.5 -53.5t-384 53.5t-121 144.5q0 57 35 91.5t109 51.5t199 22q-115 6 -183 21.5t-99.5 44.5t-31.5 75q0 86 112 131t364 45q253 0 365 -45t112 -131q0 -46 -31.5 -75t-99.5 -44.5t-183 -21.5q125 -5 199 -22
zM352 392.5q46 -13.5 175 -13.5q131 0 181.5 14t50.5 39q0 16 -19.5 26t-70 15t-142.5 5q-91 0 -139 -5t-65 -15t-17 -26q0 -26 46 -39.5zM686.5 174.5q56.5 5.5 79 16.5t22.5 29t-22.5 28.5t-79 16t-159.5 5.5q-102 0 -156 -5.5t-74 -16t-20 -28.5q0 -19 20 -29.5t74 -16
t156 -5.5q103 0 159.5 5.5z" />
    <glyph glyph-name="nine.tf" 
d="M886 604.5q140 -55.5 140 -166.5q0 -67 -61 -123l-345 -315h-337l309 228q-82 -28 -187 -28q-117 0 -202 28.5t-129.5 80t-44.5 117.5q0 68 50.5 121t153.5 83t254 30q259 0 399 -55.5zM509 350q118 0 192.5 18.5t74.5 52.5q0 68 -267 68q-118 0 -174 -15.5t-56 -52.5
q0 -71 230 -71z" />
    <glyph glyph-name="zero.tosf" 
d="M167 46q-117 61 -117 198t117 199t363 62q244 0 360 -62t116 -199q0 -92 -52 -149t-156.5 -83.5t-267.5 -26.5q-246 0 -363 61zM702.5 162.5q58.5 27.5 58.5 81.5t-58.5 82.5t-172.5 28.5q-115 0 -175 -28.5t-60 -82.5q0 -109 235 -109q114 0 172.5 27.5z" />
    <glyph glyph-name="one.tosf" 
d="M950 180v-180h-844v180h314v130h-234v180h474v-310h290z" />
    <glyph glyph-name="two.tosf" 
d="M410 136l567 19v-155h-890v125v0v0v0h1q258 46 380 70t189.5 48t67.5 51q0 15 -17.5 24t-62 13.5t-126.5 4.5q-107 0 -161 -17t-58 -51h-250q0 113 116.5 175t341.5 62q218 0 344 -38t126 -134q0 -58 -56 -92t-146 -52t-258 -39z" />
    <glyph glyph-name="three.tosf" 
d="M872.5 159.5q69.5 -12.5 108.5 -44t39 -88.5q0 -98 -131.5 -148t-367.5 -50q-235 0 -360.5 63.5t-125.5 184.5h251q4 -58 235 -58q88 0 136.5 4t73 16.5t24.5 37.5q0 24 -30 36t-87 16t-158 4h-149v70h149q100 0 156 5.5t80 18.5t24 36q0 31 -50.5 44t-163.5 13
q-108 0 -171.5 -17.5t-67.5 -50.5h-249q0 86 64.5 144t175 86t248.5 28q230 0 352 -44.5t122 -132.5q0 -77 -78 -112.5t-226 -45.5q107 -3 176.5 -15.5z" />
    <glyph glyph-name="four.tosf" 
d="M1034 -35h-164v-110h-240v110h-610v150l610 380h240v-380h164v-150zM630 115v167l-261 -167h261z" />
    <glyph glyph-name="five.tosf" 
d="M993 41q0 -112 -111 -166.5t-338 -54.5q-133 0 -242.5 26t-174 75.5t-64.5 115.5h220q4 -21 75 -34t169 -13q106 0 166 9.5t60 44.5q0 36 -61 46t-165 10q-70 0 -142.5 -6.5t-104.5 -14.5l-198 35l50 376h779v-190h-563l-20 -148q57 31 151 52.5t189 21.5q325 0 325 -185
z" />
    <glyph glyph-name="six.tosf" 
d="M852 411.5q85 -28.5 129.5 -80t44.5 -117.5q0 -68 -50.5 -121t-153.5 -83t-254 -30q-259 0 -399 55.5t-140 166.5q0 67 61 123l345 315h337l-309 -228q82 28 187 28q117 0 202 -28.5zM719 166.5q57 15.5 57 52.5q0 35 -59 53t-171 18q-122 0 -194.5 -18.5t-72.5 -52.5
q0 -68 267 -68q116 0 173 15.5z" />
    <glyph glyph-name="seven.tosf" 
d="M1034 490v-190l-505 -450h-327l512 450h-693v190h1013z" />
    <glyph glyph-name="eight.tosf" 
d="M889 321q74 -17 109 -51.5t35 -91.5q0 -91 -121.5 -144.5t-384.5 -53.5t-384 53.5t-121 144.5q0 57 35 91.5t109 51.5t199 22q-115 6 -183 21.5t-99.5 44.5t-31.5 75q0 86 112 131t364 45q253 0 365 -45t112 -131q0 -46 -31.5 -75t-99.5 -44.5t-183 -21.5q125 -5 199 -22
zM352 392.5q46 -13.5 175 -13.5q131 0 181.5 14t50.5 39q0 16 -19.5 26t-70 15t-142.5 5q-91 0 -139 -5t-65 -15t-17 -26q0 -26 46 -39.5zM686.5 174.5q56.5 5.5 79 16.5t22.5 29t-22.5 28.5t-79 16t-159.5 5.5q-102 0 -156 -5.5t-74 -16t-20 -28.5q0 -19 20 -29.5t74 -16
t156 -5.5q103 0 159.5 5.5z" />
    <glyph glyph-name="nine.tosf" 
d="M886 449.5q140 -55.5 140 -166.5q0 -67 -61 -123l-345 -315h-337l309 228q-82 -28 -187 -28q-117 0 -202 28.5t-129.5 80t-44.5 117.5q0 68 50.5 121t153.5 83t254 30q259 0 399 -55.5zM341.5 213q62.5 -18 177.5 -18q122 0 189.5 18t67.5 53q0 37 -65 52.5t-192 15.5
q-120 0 -180 -15.5t-60 -52.5q0 -35 62.5 -53z" />
    <glyph glyph-name="zero.dnom" horiz-adv-x="720" 
d="M603 363.5q82 -55.5 82 -164.5t-82 -164t-243 -55t-243 55t-82 164t82 164.5t243 55.5t243 -55.5zM451.5 144.5q29.5 17.5 29.5 54.5q0 36 -29.5 53t-91.5 17q-63 0 -94.5 -17t-31.5 -53q0 -37 31 -54.5t95 -17.5q62 0 91.5 17.5z" />
    <glyph glyph-name="one.dnom" horiz-adv-x="729" 
d="M629 140v-140h-604v140h224v127h-224v135h434v-262h170z" />
    <glyph glyph-name="two.dnom" horiz-adv-x="685" 
d="M64 129q177 24 265 40.5t118 30t30 31.5t-27 26t-95 8q-64 0 -98 -11.5t-43 -29.5h-174q0 53 33.5 96.5t105 69.5t180.5 26q134 0 210 -31.5t76 -104.5q0 -44 -25 -70t-73.5 -40.5t-130.5 -24.5l-136 -16l354 10v-139h-570v129z" />
    <glyph glyph-name="three.dnom" horiz-adv-x="683" 
d="M565.5 183.5q37.5 -5.5 60 -23t22.5 -54.5q0 -65 -77.5 -95.5t-227.5 -30.5q-152 0 -230 40.5t-78 125.5h143q1 -19 40.5 -26t121.5 -7q65 0 96.5 2t45.5 8t14 20q0 13 -15 19t-46.5 7.5t-94.5 1.5h-136v40h136q87 0 117.5 7t30.5 24q0 15 -30 21t-118 6q-73 0 -116 -8
t-45 -20h-142q0 89 83.5 132t215.5 43q301 0 301 -124q0 -45 -47 -70t-129 -31q67 -2 104.5 -7.5z" />
    <glyph glyph-name="four.dnom" horiz-adv-x="673" 
d="M643 63h-79v-63h-187v63h-327v132l339 206h175v-228h79v-110zM387 282l-153 -122h153v122z" />
    <glyph glyph-name="five.dnom" horiz-adv-x="675" 
d="M571 207q54 -29 54 -92q0 -72 -66.5 -103.5t-214.5 -31.5q-133 0 -211 38.5t-78 108.5h146q2 -12 42 -19t111 -7q64 0 90.5 6t26.5 25q0 18 -24.5 22.5t-92.5 4.5l-155 -1l-119 34l14 210h484v-129h-365l-7 -79q40 23 93 32.5t126 9.5q92 0 146 -29z" />
    <glyph glyph-name="six.dnom" horiz-adv-x="677" 
d="M584 249q58 -34 58 -105q0 -81 -67.5 -122.5t-211.5 -41.5q-163 0 -248 37.5t-85 109.5q0 27 11 53t46 57q30 27 200 164h223l-207 -142q55 24 107 24q116 0 174 -34zM461.5 120.5q32.5 8.5 32.5 26.5q0 19 -32 27.5t-116 8.5q-88 0 -127 -8.5t-39 -27.5q0 -18 39 -26.5
t127 -8.5q83 0 115.5 8.5z" />
    <glyph glyph-name="seven.dnom" horiz-adv-x="656" 
d="M626 401v-153l-219 -248h-250l236 247h-363v154h596z" />
    <glyph glyph-name="eight.dnom" horiz-adv-x="668" 
d="M590 175.5q43 -24.5 43 -71.5q0 -59 -70 -90.5t-229 -31.5t-229 31.5t-70 90.5q0 47 41.5 71t101.5 27q-55 7 -90.5 31t-35.5 68q0 61 66 88t216 27t216 -27t66 -88q0 -44 -37 -68t-98 -31q66 -2 109 -26.5zM242.5 283q-31.5 -3 -42 -8.5t-10.5 -15.5q0 -15 29 -23
t115 -8q87 0 118.5 8t31.5 23q0 14 -30.5 20.5t-119.5 6.5q-60 0 -91.5 -3zM468 120q35 7 35 22q0 16 -34.5 22.5t-134.5 6.5q-68 0 -103 -3t-47.5 -9t-12.5 -17q0 -10 12.5 -16.5t47.5 -9.5t103 -3q99 0 134 7z" />
    <glyph glyph-name="nine.dnom" horiz-adv-x="682" 
d="M562 378q85 -37 85 -110q0 -27 -11 -53t-46 -57q-30 -27 -200 -158h-223l201 134q-51 -22 -101 -22q-116 0 -174 34t-58 105q0 81 67.5 122.5t211.5 41.5q163 0 248 -37zM458 220.5q39 8.5 39 28.5q0 17 -39.5 25.5t-126.5 8.5q-83 0 -115.5 -8.5t-32.5 -25.5
q0 -20 31.5 -28.5t116.5 -8.5q88 0 127 8.5z" />
    <glyph glyph-name="zero.numr" horiz-adv-x="720" 
d="M603 603.5q82 -55.5 82 -164.5t-82 -164t-243 -55t-243 55t-82 164t82 164.5t243 55.5t243 -55.5zM451.5 384.5q29.5 17.5 29.5 54.5q0 36 -29.5 53t-91.5 17q-63 0 -94.5 -17t-31.5 -53q0 -37 31 -54.5t95 -17.5q62 0 91.5 17.5z" />
    <glyph glyph-name="one.numr" horiz-adv-x="729" 
d="M629 380v-140h-604v140h224v127h-224v135h434v-262h170z" />
    <glyph glyph-name="two.numr" horiz-adv-x="685" 
d="M64 369q177 24 265 40.5t118 30t30 31.5t-27 26t-95 8q-64 0 -98 -11.5t-43 -29.5h-174q0 53 33.5 96.5t105 69.5t180.5 26q134 0 210 -31.5t76 -104.5q0 -44 -25 -70t-73.5 -40.5t-130.5 -24.5l-136 -16l354 10v-139h-570v129z" />
    <glyph glyph-name="three.numr" horiz-adv-x="683" 
d="M565.5 423.5q37.5 -5.5 60 -23t22.5 -54.5q0 -65 -77.5 -95.5t-227.5 -30.5q-152 0 -230 40.5t-78 125.5h143q1 -19 40.5 -26t121.5 -7q65 0 96.5 2t45.5 8t14 20q0 13 -15 19t-46.5 7.5t-94.5 1.5h-136v40h136q87 0 117.5 7t30.5 24q0 15 -30 21t-118 6q-73 0 -116 -8
t-45 -20h-142q0 89 83.5 132t215.5 43q301 0 301 -124q0 -45 -47 -70t-129 -31q67 -2 104.5 -7.5z" />
    <glyph glyph-name="four.numr" horiz-adv-x="673" 
d="M643 303h-79v-63h-187v63h-327v132l339 206h175v-228h79v-110zM387 522l-153 -122h153v122z" />
    <glyph glyph-name="five.numr" horiz-adv-x="675" 
d="M571 447q54 -29 54 -92q0 -72 -66.5 -103.5t-214.5 -31.5q-133 0 -211 38.5t-78 108.5h146q2 -12 42 -19t111 -7q64 0 90.5 6t26.5 25q0 18 -24.5 22.5t-92.5 4.5l-155 -1l-119 34l14 210h484v-129h-365l-7 -79q40 23 93 32.5t126 9.5q92 0 146 -29z" />
    <glyph glyph-name="six.numr" horiz-adv-x="677" 
d="M584 489q58 -34 58 -105q0 -81 -67.5 -122.5t-211.5 -41.5q-163 0 -248 37.5t-85 109.5q0 27 11 53t46 57q30 27 200 164h223l-207 -142q55 24 107 24q116 0 174 -34zM461.5 360.5q32.5 8.5 32.5 26.5q0 19 -32 27.5t-116 8.5q-88 0 -127 -8.5t-39 -27.5q0 -18 39 -26.5
t127 -8.5q83 0 115.5 8.5z" />
    <glyph glyph-name="seven.numr" horiz-adv-x="656" 
d="M626 641v-153l-219 -248h-250l236 247h-363v154h596z" />
    <glyph glyph-name="eight.numr" horiz-adv-x="668" 
d="M590 415.5q43 -24.5 43 -71.5q0 -59 -70 -90.5t-229 -31.5t-229 31.5t-70 90.5q0 47 41.5 71t101.5 27q-55 7 -90.5 31t-35.5 68q0 61 66 88t216 27t216 -27t66 -88q0 -44 -37 -68t-98 -31q66 -2 109 -26.5zM242.5 523q-31.5 -3 -42 -8.5t-10.5 -15.5q0 -15 29 -23
t115 -8q87 0 118.5 8t31.5 23q0 14 -30.5 20.5t-119.5 6.5q-60 0 -91.5 -3zM468 360q35 7 35 22q0 16 -34.5 22.5t-134.5 6.5q-68 0 -103 -3t-47.5 -9t-12.5 -17q0 -10 12.5 -16.5t47.5 -9.5t103 -3q99 0 134 7z" />
    <glyph glyph-name="nine.numr" horiz-adv-x="682" 
d="M562 618q85 -37 85 -110q0 -27 -11 -53t-46 -57q-30 -27 -200 -158h-223l201 134q-51 -22 -101 -22q-116 0 -174 34t-58 105q0 81 67.5 122.5t211.5 41.5q163 0 248 -37zM458 460.5q39 8.5 39 28.5q0 17 -39.5 25.5t-126.5 8.5q-83 0 -115.5 -8.5t-32.5 -25.5
q0 -20 31.5 -28.5t116.5 -8.5q88 0 127 8.5z" />
    <glyph glyph-name="exclamdown.case" horiz-adv-x="354" 
d="M50 390v151h254v-151h-254zM52 337h250v-446h-250v446z" />
    <glyph glyph-name="questiondown.case" horiz-adv-x="844" 
d="M565 435h-254v151h254v-151zM809 159q0 -47 -35.5 -100.5t-121.5 -93t-226 -39.5q-213 0 -302 66t-89 178q0 106 82.5 160.5t215.5 54.5h230v-150h-137q-77 0 -109 -12.5t-32 -42.5t32 -42t109 -12q79 0 109 13t38 33h235z" />
    <glyph glyph-name="parenleft.case" horiz-adv-x="405" 
d="M269 -143q-87 74 -148 194t-61 265t61 262t148 187l76 -76q-56 -57 -95.5 -153.5t-39.5 -219.5q0 -133 39.5 -231.5t95.5 -151.5z" />
    <glyph glyph-name="parenright.case" horiz-adv-x="405" 
d="M155.5 84.5q39.5 98.5 39.5 231.5q0 123 -39.5 219.5t-95.5 153.5l76 76q87 -70 148 -187t61 -262t-61 -265t-148 -194l-76 76q56 53 95.5 151.5z" />
    <glyph glyph-name="exclam_question" horiz-adv-x="1142" 
d="M1000 182.5q-52 -32.5 -124 -32.5q-70 0 -154 31v0l-216 78l52 141l128 -46q72 -26 105 -26q19 0 30 7t16 22q4 10 4 16q0 22 -28 41.5t-90 41.5q-66 25 -106 25q-33 0 -47 -18l-221 80q6 29 33.5 62t79.5 56.5t126 23.5q91 0 204 -41q300 -108 300 -280q0 -40 -16 -83
q-24 -66 -76 -98.5zM262 663l188 -404l-227 -105l-188 404zM619 0h-254v151h254v-151z" />
    <glyph glyph-name="ampersand.case" horiz-adv-x="1005" 
d="M975 285h-113v-431h-240v146h-552v640h559v-190h-319v-90h665v-75zM622 285h-312v-95h312v95z" />
    <glyph glyph-name="ampersand.ss01" horiz-adv-x="1288" 
d="M1044 0l-75 40q-154 -60 -443 -60q-221 0 -343.5 52t-122.5 165q0 93 80.5 127.5t215.5 39.5l-238 126v150h935v-150h-591l461 -273q34 24 42 71h210q-13 -105 -83 -172l196 -116h-244zM724 170l-292 154q-152 -9 -152 -75q0 -43 67 -63t212 -20q102 0 165 4z" />
    <glyph glyph-name="caroncomb.alt" horiz-adv-x="0" 
d="M-75 603h-254v151h254v-151z" />
    </font>
</defs>
</svg>
